<?xml version="1.0" encoding="UTF-8" standalone="no"?>
<!DOCTYPE svg PUBLIC "-//W3C//DTD SVG 1.1//EN"
 "http://www.w3.org/Graphics/SVG/1.1/DTD/svg11.dtd">
<!-- Generated by graphviz version 2.43.0 (0)
 -->
<!-- Title: Evolutional_Graph_Neural_Network Pages: 1 -->
<svg width="271pt" height="207pt"
 viewBox="0.00 0.00 271.00 207.00" xmlns="http://www.w3.org/2000/svg" xmlns:xlink="http://www.w3.org/1999/xlink">
<g id="graph0" class="graph" transform="scale(1 1) rotate(0) translate(4 203)">
<title>Evolutional_Graph_Neural_Network</title>
<polygon fill="white" stroke="transparent" points="-4,4 -4,-203 267,-203 267,4 -4,4"/>
<g id="clust1" class="cluster">
<title>cluster_0</title>
<polygon fill="none" stroke="black" points="8,-116 8,-191 114,-191 114,-116 8,-116"/>
<text text-anchor="middle" x="61" y="-175.8" font-family="Times,serif" font-size="14.00">Input Nodes</text>
</g>
<g id="clust2" class="cluster">
<title>cluster_1</title>
<polygon fill="none" stroke="black" points="15,-8 15,-83 107,-83 107,-8 15,-8"/>
<text text-anchor="middle" x="61" y="-67.8" font-family="Times,serif" font-size="14.00">Output Nodes</text>
</g>
<!-- 0 -->
<g id="node1" class="node">
<title>0</title>
<ellipse fill="none" stroke="black" cx="34" cy="-142" rx="18" ry="18"/>
<text text-anchor="middle" x="34" y="-138.3" font-family="Times,serif" font-size="14.00">0</text>
</g>
<!-- 2 -->
<g id="node3" class="node">
<title>2</title>
<ellipse fill="none" stroke="black" cx="61" cy="-34" rx="18" ry="18"/>
<text text-anchor="middle" x="61" y="-30.3" font-family="Times,serif" font-size="14.00">2</text>
</g>
<!-- 0&#45;&gt;2 -->
<g id="edge1" class="edge">
<title>0&#45;&gt;2</title>
<path fill="none" stroke="red" d="M25.98,-125.53C21.87,-115.58 18.42,-102.41 22,-91 26.1,-77.93 34.46,-65.24 42.38,-55.26"/>
<polygon fill="red" stroke="red" points="45.09,-57.47 48.84,-47.56 39.73,-52.97 45.09,-57.47"/>
<text text-anchor="middle" x="51" y="-94.8" font-family="Times,serif" font-size="14.00">40.000000</text>
</g>
<!-- 1 -->
<g id="node2" class="node">
<title>1</title>
<ellipse fill="none" stroke="black" cx="88" cy="-142" rx="18" ry="18"/>
<text text-anchor="middle" x="88" y="-138.3" font-family="Times,serif" font-size="14.00">1</text>
</g>
<!-- 1&#45;&gt;2 -->
<g id="edge2" class="edge">
<title>1&#45;&gt;2</title>
<path fill="none" stroke="red" d="M85.97,-123.73C84.64,-114.03 82.66,-101.75 80,-91 77.5,-80.9 74,-70.02 70.68,-60.56"/>
<polygon fill="red" stroke="red" points="73.91,-59.18 67.22,-50.96 67.32,-61.55 73.91,-59.18"/>
<text text-anchor="middle" x="113" y="-94.8" font-family="Times,serif" font-size="14.00">40.000000</text>
</g>
<!-- 3 -->
<g id="node4" class="node">
<title>3</title>
<ellipse fill="none" stroke="black" cx="169" cy="-142" rx="18" ry="18"/>
<text text-anchor="middle" x="169" y="-138.3" font-family="Times,serif" font-size="14.00">3</text>
</g>
<!-- 3&#45;&gt;2 -->
<g id="edge4" class="edge">
<title>3&#45;&gt;2</title>
<path fill="none" stroke="blue" d="M163.99,-124.37C160.25,-113.96 154.34,-100.71 146,-91 129.53,-71.82 104.92,-56.59 86.41,-46.88"/>
<polygon fill="blue" stroke="blue" points="87.87,-43.7 77.37,-42.32 84.72,-49.95 87.87,-43.7"/>
<text text-anchor="middle" x="186.5" y="-94.8" font-family="Times,serif" font-size="14.00">&#45;60.000000</text>
</g>
<!-- 3&#45;&gt;3 -->
<g id="edge3" class="edge">
<title>3&#45;&gt;3</title>
<path fill="none" stroke="red" d="M185.66,-149.38C195.62,-151.02 205,-148.56 205,-142 205,-137.8 201.15,-135.28 195.77,-134.44"/>
<polygon fill="red" stroke="red" points="195.6,-130.94 185.66,-134.62 195.72,-137.94 195.6,-130.94"/>
<text text-anchor="middle" x="234" y="-138.3" font-family="Times,serif" font-size="14.00">20.000000</text>
</g>
</g>
</svg>
