<?xml version="1.0" encoding="UTF-8" standalone="no"?>
<!DOCTYPE svg PUBLIC "-//W3C//DTD SVG 1.1//EN"
 "http://www.w3.org/Graphics/SVG/1.1/DTD/svg11.dtd">
<!-- Generated by graphviz version 2.43.0 (0)
 -->
<!-- Title: Evolutional_Graph_Neural_Network Pages: 1 -->
<svg width="1133pt" height="582pt"
 viewBox="0.00 0.00 1133.42 581.98" xmlns="http://www.w3.org/2000/svg" xmlns:xlink="http://www.w3.org/1999/xlink">
<g id="graph0" class="graph" transform="scale(1 1) rotate(0) translate(4 577.98)">
<title>Evolutional_Graph_Neural_Network</title>
<polygon fill="white" stroke="transparent" points="-4,4 -4,-577.98 1129.42,-577.98 1129.42,4 -4,4"/>
<g id="clust1" class="cluster">
<title>cluster_0</title>
<polygon fill="none" stroke="black" points="546.42,-305.99 546.42,-403.99 814.42,-403.99 814.42,-305.99 546.42,-305.99"/>
<text text-anchor="middle" x="680.42" y="-388.79" font-family="Times,serif" font-size="14.00">Input Nodes</text>
</g>
<g id="clust2" class="cluster">
<title>cluster_1</title>
<polygon fill="none" stroke="black" points="182.42,-83.49 182.42,-271.49 351.42,-271.49 351.42,-83.49 182.42,-83.49"/>
<text text-anchor="middle" x="266.92" y="-256.29" font-family="Times,serif" font-size="14.00">Output Nodes</text>
</g>
<!-- 0 -->
<g id="node1" class="node">
<title>0</title>
<ellipse fill="none" stroke="black" cx="572.42" cy="-331.99" rx="18" ry="18"/>
<text text-anchor="middle" x="572.42" y="-328.29" font-family="Times,serif" font-size="14.00">0</text>
</g>
<!-- 6 -->
<g id="node7" class="node">
<title>6</title>
<ellipse fill="none" stroke="black" cx="271.42" cy="-109.49" rx="18" ry="18"/>
<text text-anchor="middle" x="271.42" y="-105.79" font-family="Times,serif" font-size="14.00">6</text>
</g>
<!-- 0&#45;&gt;6 -->
<g id="edge2" class="edge">
<title>0&#45;&gt;6</title>
<path fill="none" stroke="red" d="M577.09,-314.24C584.26,-284.89 594.77,-223.15 570.42,-179.99 523.96,-97.62 355.75,-149.36 298.42,-128.99 296.81,-128.42 295.19,-127.72 293.6,-126.94"/>
<polygon fill="red" stroke="red" points="295.34,-123.9 284.96,-121.78 291.75,-129.91 295.34,-123.9"/>
<text text-anchor="middle" x="611.42" y="-195.79" font-family="Times,serif" font-size="14.00">7.763000</text>
</g>
<!-- 1 -->
<g id="node2" class="node">
<title>1</title>
<ellipse fill="none" stroke="black" cx="734.42" cy="-331.99" rx="18" ry="18"/>
<text text-anchor="middle" x="734.42" y="-328.29" font-family="Times,serif" font-size="14.00">1</text>
</g>
<!-- 2 -->
<g id="node3" class="node">
<title>2</title>
<ellipse fill="none" stroke="black" cx="788.42" cy="-331.99" rx="18" ry="18"/>
<text text-anchor="middle" x="788.42" y="-328.29" font-family="Times,serif" font-size="14.00">2</text>
</g>
<!-- 5 -->
<g id="node6" class="node">
<title>5</title>
<ellipse fill="none" stroke="black" cx="325.42" cy="-109.49" rx="18" ry="18"/>
<text text-anchor="middle" x="325.42" y="-105.79" font-family="Times,serif" font-size="14.00">5</text>
</g>
<!-- 2&#45;&gt;5 -->
<g id="edge9" class="edge">
<title>2&#45;&gt;5</title>
<path fill="none" stroke="red" d="M805.15,-325.04C825.18,-316.84 854.93,-300.66 845.42,-279.49 818.14,-218.76 792.04,-211.58 733.42,-179.99 666.99,-144.19 434.86,-120.35 353.7,-112.95"/>
<polygon fill="red" stroke="red" points="353.98,-109.46 343.71,-112.05 353.35,-116.43 353.98,-109.46"/>
<text text-anchor="middle" x="866.42" y="-195.79" font-family="Times,serif" font-size="14.00">6.124000</text>
</g>
<!-- 8 -->
<g id="node9" class="node">
<title>8</title>
<ellipse fill="none" stroke="black" cx="316.42" cy="-199.49" rx="18" ry="18"/>
<text text-anchor="middle" x="316.42" y="-195.79" font-family="Times,serif" font-size="14.00">8</text>
</g>
<!-- 2&#45;&gt;8 -->
<g id="edge7" class="edge">
<title>2&#45;&gt;8</title>
<path fill="none" stroke="red" d="M777.28,-317.73C772.81,-313.28 767.33,-308.75 761.42,-305.99 740.62,-296.25 579.3,-281.5 556.42,-279.49 537.59,-277.83 403.69,-279.2 386.42,-271.49 363.54,-261.28 344.15,-239.91 331.63,-223.27"/>
<polygon fill="red" stroke="red" points="334.41,-221.15 325.72,-215.09 328.73,-225.24 334.41,-221.15"/>
<text text-anchor="middle" x="722.42" y="-283.29" font-family="Times,serif" font-size="14.00">9.956000</text>
</g>
<!-- 17 -->
<g id="node11" class="node">
<title>17</title>
<ellipse fill="none" stroke="black" cx="963.42" cy="-199.49" rx="19.5" ry="19.5"/>
<text text-anchor="middle" x="963.42" y="-195.79" font-family="Times,serif" font-size="14.00">17</text>
</g>
<!-- 2&#45;&gt;17 -->
<g id="edge4" class="edge">
<title>2&#45;&gt;17</title>
<path fill="none" stroke="red" d="M805.91,-326.43C832.29,-318.81 882.66,-301.33 915.42,-271.49 929.5,-258.67 941.5,-240.93 949.98,-226.38"/>
<polygon fill="red" stroke="red" points="953.19,-227.81 955.03,-217.37 947.09,-224.39 953.19,-227.81"/>
<text text-anchor="middle" x="929.42" y="-283.29" font-family="Times,serif" font-size="14.00">3.929000</text>
</g>
<!-- 14 -->
<g id="node12" class="node">
<title>14</title>
<ellipse fill="none" stroke="black" cx="1071.42" cy="-109.49" rx="19.5" ry="19.5"/>
<text text-anchor="middle" x="1071.42" y="-105.79" font-family="Times,serif" font-size="14.00">14</text>
</g>
<!-- 2&#45;&gt;14 -->
<g id="edge3" class="edge">
<title>2&#45;&gt;14</title>
<path fill="none" stroke="blue" d="M806.58,-330.97C845.73,-329.92 938.79,-321.93 991.42,-271.49 1036.1,-228.68 1057.2,-220.48 1077.42,-161.99 1079.97,-154.62 1080.11,-146.35 1079.17,-138.62"/>
<polygon fill="blue" stroke="blue" points="1082.58,-137.78 1077.36,-128.56 1075.69,-139.02 1082.58,-137.78"/>
<text text-anchor="middle" x="1097.42" y="-195.79" font-family="Times,serif" font-size="14.00">&#45;7.433000</text>
</g>
<!-- 3 -->
<g id="node4" class="node">
<title>3</title>
<ellipse fill="none" stroke="black" cx="626.42" cy="-331.99" rx="18" ry="18"/>
<text text-anchor="middle" x="626.42" y="-328.29" font-family="Times,serif" font-size="14.00">3</text>
</g>
<!-- 15 -->
<g id="node14" class="node">
<title>15</title>
<ellipse fill="none" stroke="black" cx="387.42" cy="-554.48" rx="19.5" ry="19.5"/>
<text text-anchor="middle" x="387.42" y="-550.78" font-family="Times,serif" font-size="14.00">15</text>
</g>
<!-- 3&#45;&gt;15 -->
<g id="edge34" class="edge">
<title>3&#45;&gt;15</title>
<path fill="none" stroke="blue" d="M627.83,-350.13C630.19,-366.8 636.51,-391.38 653.42,-403.99 672.72,-418.37 745.05,-394.36 761.42,-411.99 765.96,-416.87 764.91,-421.31 761.42,-426.99 715.28,-502.22 668.01,-488.66 584.42,-516.99 526.91,-536.48 456.22,-546.36 417.07,-550.67"/>
<polygon fill="blue" stroke="blue" points="416.48,-547.22 406.91,-551.74 417.22,-554.18 416.48,-547.22"/>
<text text-anchor="middle" x="776.42" y="-460.79" font-family="Times,serif" font-size="14.00">&#45;4.106000</text>
</g>
<!-- 4 -->
<g id="node5" class="node">
<title>4</title>
<ellipse fill="none" stroke="black" cx="680.42" cy="-331.99" rx="18" ry="18"/>
<text text-anchor="middle" x="680.42" y="-328.29" font-family="Times,serif" font-size="14.00">4</text>
</g>
<!-- 4&#45;&gt;5 -->
<g id="edge28" class="edge">
<title>4&#45;&gt;5</title>
<path fill="none" stroke="red" d="M680.77,-313.75C680.45,-283.07 675.44,-218.58 641.42,-179.99 603.43,-136.9 424.4,-118.3 353.98,-112.57"/>
<polygon fill="red" stroke="red" points="353.89,-109.05 343.64,-111.75 353.34,-116.03 353.89,-109.05"/>
<text text-anchor="middle" x="703.42" y="-195.79" font-family="Times,serif" font-size="14.00">9.507000</text>
</g>
<!-- 4&#45;&gt;17 -->
<g id="edge32" class="edge">
<title>4&#45;&gt;17</title>
<path fill="none" stroke="blue" d="M691.67,-317.94C696.15,-313.51 701.61,-308.94 707.42,-305.99 731.25,-293.9 740.37,-300.39 766.42,-294.49 792.39,-288.61 798.18,-284.01 824.42,-279.49 844.43,-276.05 897.93,-281.79 915.42,-271.49 932.31,-261.55 944.52,-243.06 952.4,-227.43"/>
<polygon fill="blue" stroke="blue" points="955.67,-228.72 956.75,-218.18 949.33,-225.74 955.67,-228.72"/>
<text text-anchor="middle" x="852.42" y="-283.29" font-family="Times,serif" font-size="14.00">&#45;2.363000</text>
</g>
<!-- 5&#45;&gt;17 -->
<g id="edge31" class="edge">
<title>5&#45;&gt;17</title>
<path fill="none" stroke="blue" d="M343.56,-110.48C426.45,-110.62 769.46,-113.27 870.42,-146.99 882,-150.86 882.89,-155.83 893.42,-161.99 907.61,-170.29 923.86,-178.82 937.13,-185.55"/>
<polygon fill="blue" stroke="blue" points="935.69,-188.74 946.2,-190.1 938.83,-182.48 935.69,-188.74"/>
<text text-anchor="middle" x="921.42" y="-150.79" font-family="Times,serif" font-size="14.00">&#45;1.374000</text>
</g>
<!-- 19 -->
<g id="node15" class="node">
<title>19</title>
<ellipse fill="none" stroke="black" cx="499.42" cy="-464.49" rx="19.5" ry="19.5"/>
<text text-anchor="middle" x="499.42" y="-460.79" font-family="Times,serif" font-size="14.00">19</text>
</g>
<!-- 6&#45;&gt;19 -->
<g id="edge27" class="edge">
<title>6&#45;&gt;19</title>
<path fill="none" stroke="blue" d="M285.23,-121.14C289.32,-123.96 293.92,-126.83 298.42,-128.99 323.13,-140.88 340.3,-125.58 357.42,-146.99 398.48,-198.33 344.84,-233.13 368.42,-294.49 392.26,-356.52 446.81,-414.43 477.47,-443.65"/>
<polygon fill="blue" stroke="blue" points="475.39,-446.5 485.08,-450.78 480.18,-441.39 475.39,-446.5"/>
<text text-anchor="middle" x="396.42" y="-283.29" font-family="Times,serif" font-size="14.00">&#45;1.861000</text>
</g>
<!-- 7 -->
<g id="node8" class="node">
<title>7</title>
<ellipse fill="none" stroke="black" cx="262.42" cy="-199.49" rx="18" ry="18"/>
<text text-anchor="middle" x="262.42" y="-195.79" font-family="Times,serif" font-size="14.00">7</text>
</g>
<!-- 8&#45;&gt;6 -->
<g id="edge29" class="edge">
<title>8&#45;&gt;6</title>
<path fill="none" stroke="blue" d="M308.59,-183.16C301.79,-169.87 291.83,-150.39 283.93,-134.95"/>
<polygon fill="blue" stroke="blue" points="286.99,-133.25 279.32,-125.94 280.76,-136.44 286.99,-133.25"/>
<text text-anchor="middle" x="325.42" y="-150.79" font-family="Times,serif" font-size="14.00">&#45;2.657000</text>
</g>
<!-- 9 -->
<g id="node10" class="node">
<title>9</title>
<ellipse fill="none" stroke="black" cx="208.42" cy="-199.49" rx="18" ry="18"/>
<text text-anchor="middle" x="208.42" y="-195.79" font-family="Times,serif" font-size="14.00">9</text>
</g>
<!-- 9&#45;&gt;5 -->
<g id="edge13" class="edge">
<title>9&#45;&gt;5</title>
<path fill="none" stroke="blue" d="M212.03,-181.35C215.27,-170.05 221.15,-155.77 231.42,-146.99 254.88,-126.97 270.42,-141.89 298.42,-128.99 299.99,-128.27 301.56,-127.47 303.11,-126.6"/>
<polygon fill="blue" stroke="blue" points="305.06,-129.51 311.67,-121.24 301.34,-123.58 305.06,-129.51"/>
<text text-anchor="middle" x="259.42" y="-150.79" font-family="Times,serif" font-size="14.00">&#45;0.559000</text>
</g>
<!-- 9&#45;&gt;17 -->
<g id="edge1" class="edge">
<title>9&#45;&gt;17</title>
<path fill="none" stroke="blue" d="M209.6,-217.46C211.79,-234.55 217.98,-259.4 235.42,-271.49 266.48,-293.01 882.12,-289.32 915.42,-271.49 932.76,-262.22 944.91,-243.61 952.65,-227.64"/>
<polygon fill="blue" stroke="blue" points="956.01,-228.7 956.91,-218.14 949.62,-225.84 956.01,-228.7"/>
<text text-anchor="middle" x="467.42" y="-283.29" font-family="Times,serif" font-size="14.00">&#45;4.614000</text>
</g>
<!-- 12 -->
<g id="node13" class="node">
<title>12</title>
<ellipse fill="none" stroke="black" cx="108.42" cy="-109.49" rx="19.5" ry="19.5"/>
<text text-anchor="middle" x="108.42" y="-105.79" font-family="Times,serif" font-size="14.00">12</text>
</g>
<!-- 9&#45;&gt;12 -->
<g id="edge5" class="edge">
<title>9&#45;&gt;12</title>
<path fill="none" stroke="red" d="M190.81,-194.51C165.05,-188.29 119.09,-175.57 109.42,-161.99 104.74,-155.41 103.24,-147.05 103.25,-139"/>
<polygon fill="red" stroke="red" points="106.76,-138.99 104.01,-128.76 99.78,-138.47 106.76,-138.99"/>
<text text-anchor="middle" x="135.42" y="-150.79" font-family="Times,serif" font-size="14.00">5.011000</text>
</g>
<!-- 17&#45;&gt;7 -->
<g id="edge12" class="edge">
<title>17&#45;&gt;7</title>
<path fill="none" stroke="red" d="M956.91,-218.14C949.73,-235.49 936.35,-260.29 915.42,-271.49 884.76,-287.9 318.01,-291.3 289.42,-271.49 275.25,-261.67 268.51,-243.42 265.3,-227.76"/>
<polygon fill="red" stroke="red" points="268.68,-226.76 263.6,-217.46 261.78,-227.9 268.68,-226.76"/>
<text text-anchor="middle" x="526.42" y="-283.29" font-family="Times,serif" font-size="14.00">0.097000</text>
</g>
<!-- 17&#45;&gt;14 -->
<g id="edge25" class="edge">
<title>17&#45;&gt;14</title>
<path fill="none" stroke="red" d="M977.88,-186.33C990.4,-175.83 1009.02,-160.31 1025.42,-146.99 1032.82,-140.99 1040.94,-134.51 1048.28,-128.69"/>
<polygon fill="red" stroke="red" points="1050.76,-131.19 1056.44,-122.25 1046.43,-125.7 1050.76,-131.19"/>
<text text-anchor="middle" x="1051.42" y="-150.79" font-family="Times,serif" font-size="14.00">0.688000</text>
</g>
<!-- 16 -->
<g id="node16" class="node">
<title>16</title>
<ellipse fill="none" stroke="black" cx="963.42" cy="-19.5" rx="19.5" ry="19.5"/>
<text text-anchor="middle" x="963.42" y="-15.8" font-family="Times,serif" font-size="14.00">16</text>
</g>
<!-- 14&#45;&gt;16 -->
<g id="edge10" class="edge">
<title>14&#45;&gt;16</title>
<path fill="none" stroke="blue" d="M1056.41,-96.26C1038.19,-81.42 1007.3,-56.25 986.16,-39.03"/>
<polygon fill="blue" stroke="blue" points="988.28,-36.23 978.31,-32.63 983.86,-41.66 988.28,-36.23"/>
<text text-anchor="middle" x="1051.42" y="-60.8" font-family="Times,serif" font-size="14.00">&#45;4.597000</text>
</g>
<!-- 15&#45;&gt;19 -->
<g id="edge6" class="edge">
<title>15&#45;&gt;19</title>
<path fill="none" stroke="red" d="M406.66,-550.16C426.69,-545.77 457.81,-536.24 477.42,-516.99 484.01,-510.52 488.73,-501.78 492.07,-493.33"/>
<polygon fill="red" stroke="red" points="495.44,-494.3 495.39,-483.7 488.82,-492.02 495.44,-494.3"/>
<text text-anchor="middle" x="513.42" y="-505.79" font-family="Times,serif" font-size="14.00">5.198000</text>
</g>
<!-- 15&#45;&gt;19 -->
<g id="edge11" class="edge">
<title>15&#45;&gt;19</title>
<path fill="none" stroke="blue" d="M394.34,-535.85C399.37,-524.92 407.1,-511.24 417.42,-501.99 432.6,-488.37 453.69,-479.14 470.68,-473.37"/>
<polygon fill="blue" stroke="blue" points="472.16,-476.57 480.63,-470.21 470.04,-469.9 472.16,-476.57"/>
<text text-anchor="middle" x="445.42" y="-505.79" font-family="Times,serif" font-size="14.00">&#45;1.906000</text>
</g>
<!-- 13 -->
<g id="node18" class="node">
<title>13</title>
<ellipse fill="none" stroke="black" cx="253.42" cy="-331.99" rx="19.5" ry="19.5"/>
<text text-anchor="middle" x="253.42" y="-328.29" font-family="Times,serif" font-size="14.00">13</text>
</g>
<!-- 15&#45;&gt;13 -->
<g id="edge22" class="edge">
<title>15&#45;&gt;13</title>
<path fill="none" stroke="red" d="M390.36,-534.96C393.9,-506.34 396.79,-450.65 373.42,-411.99 352.42,-377.24 309.6,-354.73 281.21,-342.96"/>
<polygon fill="red" stroke="red" points="282.41,-339.67 271.82,-339.24 279.83,-346.18 282.41,-339.67"/>
<text text-anchor="middle" x="417.42" y="-460.79" font-family="Times,serif" font-size="14.00">6.121000</text>
</g>
<!-- 18 -->
<g id="node19" class="node">
<title>18</title>
<ellipse fill="none" stroke="black" cx="245.42" cy="-464.49" rx="19.5" ry="19.5"/>
<text text-anchor="middle" x="245.42" y="-460.79" font-family="Times,serif" font-size="14.00">18</text>
</g>
<!-- 15&#45;&gt;18 -->
<g id="edge17" class="edge">
<title>15&#45;&gt;18</title>
<path fill="none" stroke="blue" d="M370.08,-545.29C355.68,-538.28 334.83,-527.67 317.42,-516.99 300.51,-506.6 282.33,-493.58 268.47,-483.23"/>
<polygon fill="blue" stroke="blue" points="270.54,-480.41 260.45,-477.18 266.32,-486 270.54,-480.41"/>
<text text-anchor="middle" x="345.42" y="-505.79" font-family="Times,serif" font-size="14.00">&#45;6.632000</text>
</g>
<!-- 10 -->
<g id="node20" class="node">
<title>10</title>
<ellipse fill="none" stroke="black" cx="499.42" cy="-331.99" rx="19.5" ry="19.5"/>
<text text-anchor="middle" x="499.42" y="-328.29" font-family="Times,serif" font-size="14.00">10</text>
</g>
<!-- 19&#45;&gt;10 -->
<g id="edge26" class="edge">
<title>19&#45;&gt;10</title>
<path fill="none" stroke="red" d="M499.42,-444.79C499.42,-423.08 499.42,-387.03 499.42,-361.75"/>
<polygon fill="red" stroke="red" points="502.92,-361.65 499.42,-351.65 495.92,-361.65 502.92,-361.65"/>
<text text-anchor="middle" x="525.42" y="-415.79" font-family="Times,serif" font-size="14.00">2.183000</text>
</g>
<!-- 16&#45;&gt;7 -->
<g id="edge20" class="edge">
<title>16&#45;&gt;7</title>
<path fill="none" stroke="blue" d="M944.06,-21.89C824.81,-30.51 195.05,-76.31 188.42,-83.49 159.3,-115.08 208.34,-159.48 239.58,-182.79"/>
<polygon fill="blue" stroke="blue" points="237.69,-185.74 247.84,-188.78 241.8,-180.08 237.69,-185.74"/>
<text text-anchor="middle" x="216.42" y="-105.79" font-family="Times,serif" font-size="14.00">&#45;5.086000</text>
</g>
<!-- 16&#45;&gt;17 -->
<g id="edge8" class="edge">
<title>16&#45;&gt;17</title>
<path fill="none" stroke="red" d="M963.42,-39.23C963.42,-70.35 963.42,-132.93 963.42,-169.7"/>
<polygon fill="red" stroke="red" points="959.92,-169.78 963.42,-179.78 966.92,-169.78 959.92,-169.78"/>
<text text-anchor="middle" x="989.42" y="-105.79" font-family="Times,serif" font-size="14.00">7.084000</text>
</g>
<!-- 11 -->
<g id="node17" class="node">
<title>11</title>
<ellipse fill="none" stroke="black" cx="320.42" cy="-554.48" rx="19.5" ry="19.5"/>
<text text-anchor="middle" x="320.42" y="-550.78" font-family="Times,serif" font-size="14.00">11</text>
</g>
<!-- 11&#45;&gt;8 -->
<g id="edge23" class="edge">
<title>11&#45;&gt;8</title>
<path fill="none" stroke="red" d="M320.21,-534.51C319.54,-475.78 317.52,-296.87 316.74,-227.96"/>
<polygon fill="red" stroke="red" points="320.23,-227.84 316.62,-217.88 313.24,-227.91 320.23,-227.84"/>
<text text-anchor="middle" x="344.42" y="-415.79" font-family="Times,serif" font-size="14.00">4.428000</text>
</g>
<!-- 11&#45;&gt;17 -->
<g id="edge14" class="edge">
<title>11&#45;&gt;17</title>
<path fill="none" stroke="blue" d="M337.02,-544.06C343.77,-540.64 351.77,-537.11 359.42,-534.99 438.61,-513.05 464.18,-538.7 543.42,-516.99 579.86,-507 662.37,-459.07 697.42,-444.99 750.11,-423.82 768.42,-430.89 818.42,-403.99 888.3,-366.4 923.03,-365 959.42,-294.49 969.79,-274.41 970.12,-248.57 968.23,-229.07"/>
<polygon fill="blue" stroke="blue" points="971.69,-228.47 967.01,-218.96 964.74,-229.31 971.69,-228.47"/>
<text text-anchor="middle" x="829.42" y="-415.79" font-family="Times,serif" font-size="14.00">&#45;1.883000</text>
</g>
<!-- 11&#45;&gt;12 -->
<g id="edge21" class="edge">
<title>11&#45;&gt;12</title>
<path fill="none" stroke="blue" d="M300.97,-551.98C261.18,-548.48 172.54,-538.42 152.42,-516.99 150.88,-515.34 111.77,-318.31 100.42,-161.99 99.94,-155.34 99.71,-153.62 100.42,-146.99 100.72,-144.25 101.14,-141.4 101.64,-138.57"/>
<polygon fill="blue" stroke="blue" points="105.11,-139.06 103.66,-128.56 98.25,-137.67 105.11,-139.06"/>
<text text-anchor="middle" x="159.42" y="-328.29" font-family="Times,serif" font-size="14.00">&#45;8.064000</text>
</g>
<!-- 11&#45;&gt;16 -->
<g id="edge18" class="edge">
<title>11&#45;&gt;16</title>
<path fill="none" stroke="blue" d="M300.88,-551.7C260.37,-547.65 169.02,-536.55 145.42,-516.99 -4.56,-392.65 -58.27,-220.3 80.42,-83.49 142.4,-22.36 786.38,-20.09 933.58,-20.38"/>
<polygon fill="blue" stroke="blue" points="933.67,-23.88 943.68,-20.41 933.68,-16.88 933.67,-23.88"/>
<text text-anchor="middle" x="31.42" y="-283.29" font-family="Times,serif" font-size="14.00">&#45;7.755000</text>
</g>
<!-- 11&#45;&gt;13 -->
<g id="edge33" class="edge">
<title>11&#45;&gt;13</title>
<path fill="none" stroke="blue" d="M300.99,-551.65C263.51,-547.68 183.36,-537.02 165.42,-516.99 120.12,-466.37 192.14,-388.28 231.08,-352.32"/>
<polygon fill="blue" stroke="blue" points="233.77,-354.62 238.84,-345.32 229.07,-349.42 233.77,-354.62"/>
<text text-anchor="middle" x="186.42" y="-460.79" font-family="Times,serif" font-size="14.00">&#45;4.450000</text>
</g>
<!-- 11&#45;&gt;18 -->
<g id="edge16" class="edge">
<title>11&#45;&gt;18</title>
<path fill="none" stroke="blue" d="M300.96,-551.65C264.32,-547.74 187.33,-537.26 171.42,-516.99 167.31,-511.74 167.8,-507.58 171.42,-501.99 182.01,-485.62 193.96,-492.65 211.42,-483.99 214.08,-482.67 216.82,-481.26 219.55,-479.82"/>
<polygon fill="blue" stroke="blue" points="221.45,-482.78 228.61,-474.96 218.14,-476.61 221.45,-482.78"/>
<text text-anchor="middle" x="199.42" y="-505.79" font-family="Times,serif" font-size="14.00">&#45;1.376000</text>
</g>
<!-- 13&#45;&gt;7 -->
<g id="edge15" class="edge">
<title>13&#45;&gt;7</title>
<path fill="none" stroke="red" d="M253.42,-312.38C253.51,-302.59 253.77,-290.38 254.42,-279.49 255.47,-262.22 257.41,-242.89 259.12,-227.67"/>
<polygon fill="red" stroke="red" points="262.63,-227.75 260.31,-217.41 255.68,-226.94 262.63,-227.75"/>
<text text-anchor="middle" x="280.42" y="-283.29" font-family="Times,serif" font-size="14.00">7.856000</text>
</g>
<!-- 18&#45;&gt;13 -->
<g id="edge24" class="edge">
<title>18&#45;&gt;13</title>
<path fill="none" stroke="red" d="M245.48,-444.88C245.58,-435.09 245.84,-422.88 246.42,-411.99 247.33,-395.28 248.95,-376.64 250.41,-361.66"/>
<polygon fill="red" stroke="red" points="253.91,-361.78 251.42,-351.48 246.95,-361.08 253.91,-361.78"/>
<text text-anchor="middle" x="272.42" y="-415.79" font-family="Times,serif" font-size="14.00">5.763000</text>
</g>
<!-- 10&#45;&gt;6 -->
<g id="edge19" class="edge">
<title>10&#45;&gt;6</title>
<path fill="none" stroke="blue" d="M516.36,-321.89C530.63,-313.83 549.34,-302.19 553.42,-294.49 556.55,-288.6 557.64,-284.66 553.42,-279.49 542.24,-265.78 526.46,-284.46 514.42,-271.49 476.47,-230.6 538.62,-185.68 498.42,-146.99 466.28,-116.05 340.42,-144.09 298.42,-128.99 296.81,-128.41 295.2,-127.71 293.61,-126.92"/>
<polygon fill="blue" stroke="blue" points="295.35,-123.88 284.97,-121.75 291.75,-129.89 295.35,-123.88"/>
<text text-anchor="middle" x="542.42" y="-195.79" font-family="Times,serif" font-size="14.00">&#45;1.772000</text>
</g>
<!-- 10&#45;&gt;6 -->
<g id="edge30" class="edge">
<title>10&#45;&gt;6</title>
<path fill="none" stroke="blue" d="M481.39,-324.48C467.69,-318.65 449.39,-308.79 438.42,-294.49 396.93,-240.42 446.87,-192.83 396.42,-146.99 363.65,-117.21 339.36,-145.88 298.42,-128.99 296.84,-128.34 295.25,-127.58 293.68,-126.75"/>
<polygon fill="blue" stroke="blue" points="295.43,-123.72 285.07,-121.48 291.77,-129.69 295.43,-123.72"/>
<text text-anchor="middle" x="453.42" y="-195.79" font-family="Times,serif" font-size="14.00">&#45;8.199000</text>
</g>
</g>
</svg>
