<?xml version="1.0" encoding="UTF-8" standalone="no"?>
<!DOCTYPE svg PUBLIC "-//W3C//DTD SVG 1.1//EN"
 "http://www.w3.org/Graphics/SVG/1.1/DTD/svg11.dtd">
<!-- Generated by graphviz version 2.43.0 (0)
 -->
<!-- Title: Evolutional_Graph_Neural_Network Pages: 1 -->
<svg width="678pt" height="446pt"
 viewBox="0.00 0.00 678.00 445.99" xmlns="http://www.w3.org/2000/svg" xmlns:xlink="http://www.w3.org/1999/xlink">
<g id="graph0" class="graph" transform="scale(1 1) rotate(0) translate(4 441.99)">
<title>Evolutional_Graph_Neural_Network</title>
<polygon fill="white" stroke="transparent" points="-4,4 -4,-441.99 674,-441.99 674,4 -4,4"/>
<g id="clust1" class="cluster">
<title>cluster_0</title>
<polygon fill="none" stroke="black" points="67.5,-282.99 67.5,-357.99 335.5,-357.99 335.5,-282.99 67.5,-282.99"/>
<text text-anchor="middle" x="201.5" y="-342.79" font-family="Times,serif" font-size="14.00">Input Nodes</text>
</g>
<g id="clust2" class="cluster">
<title>cluster_1</title>
<polygon fill="none" stroke="black" points="229.5,-173.49 229.5,-248.49 497.5,-248.49 497.5,-173.49 229.5,-173.49"/>
<text text-anchor="middle" x="363.5" y="-233.29" font-family="Times,serif" font-size="14.00">Output Nodes</text>
</g>
<!-- 0 -->
<g id="node1" class="node">
<title>0</title>
<ellipse fill="none" stroke="black" cx="93.5" cy="-308.99" rx="18" ry="18"/>
<text text-anchor="middle" x="93.5" y="-305.29" font-family="Times,serif" font-size="14.00">0</text>
</g>
<!-- 12 -->
<g id="node16" class="node">
<title>12</title>
<ellipse fill="none" stroke="black" cx="19.5" cy="-199.49" rx="19.5" ry="19.5"/>
<text text-anchor="middle" x="19.5" y="-195.79" font-family="Times,serif" font-size="14.00">12</text>
</g>
<!-- 0&#45;&gt;12 -->
<g id="edge6" class="edge">
<title>0&#45;&gt;12</title>
<path fill="none" stroke="blue" d="M88.51,-291.46C84.93,-280.97 79.51,-267.37 72.5,-256.49 63.95,-243.22 52.02,-230.29 41.65,-220.21"/>
<polygon fill="blue" stroke="blue" points="43.78,-217.41 34.11,-213.09 38.98,-222.5 43.78,-217.41"/>
<text text-anchor="middle" x="108.5" y="-260.29" font-family="Times,serif" font-size="14.00">&#45;3.772000</text>
</g>
<!-- 1 -->
<g id="node2" class="node">
<title>1</title>
<ellipse fill="none" stroke="black" cx="201.5" cy="-308.99" rx="18" ry="18"/>
<text text-anchor="middle" x="201.5" y="-305.29" font-family="Times,serif" font-size="14.00">1</text>
</g>
<!-- 11 -->
<g id="node15" class="node">
<title>11</title>
<ellipse fill="none" stroke="black" cx="124.5" cy="-199.49" rx="19.5" ry="19.5"/>
<text text-anchor="middle" x="124.5" y="-195.79" font-family="Times,serif" font-size="14.00">11</text>
</g>
<!-- 1&#45;&gt;11 -->
<g id="edge4" class="edge">
<title>1&#45;&gt;11</title>
<path fill="none" stroke="blue" d="M191.43,-293.94C178.75,-276.23 156.76,-245.54 141.46,-224.18"/>
<polygon fill="blue" stroke="blue" points="144.23,-222.03 135.56,-215.94 138.54,-226.11 144.23,-222.03"/>
<text text-anchor="middle" x="201.5" y="-260.29" font-family="Times,serif" font-size="14.00">&#45;2.413000</text>
</g>
<!-- 2 -->
<g id="node3" class="node">
<title>2</title>
<ellipse fill="none" stroke="black" cx="255.5" cy="-308.99" rx="18" ry="18"/>
<text text-anchor="middle" x="255.5" y="-305.29" font-family="Times,serif" font-size="14.00">2</text>
</g>
<!-- 9 -->
<g id="node10" class="node">
<title>9</title>
<ellipse fill="none" stroke="black" cx="255.5" cy="-199.49" rx="18" ry="18"/>
<text text-anchor="middle" x="255.5" y="-195.79" font-family="Times,serif" font-size="14.00">9</text>
</g>
<!-- 2&#45;&gt;9 -->
<g id="edge11" class="edge">
<title>2&#45;&gt;9</title>
<path fill="none" stroke="red" d="M255.5,-290.72C255.5,-273.79 255.5,-247.73 255.5,-227.96"/>
<polygon fill="red" stroke="red" points="259,-227.72 255.5,-217.72 252,-227.72 259,-227.72"/>
<text text-anchor="middle" x="281.5" y="-260.29" font-family="Times,serif" font-size="14.00">4.259000</text>
</g>
<!-- 3 -->
<g id="node4" class="node">
<title>3</title>
<ellipse fill="none" stroke="black" cx="147.5" cy="-308.99" rx="18" ry="18"/>
<text text-anchor="middle" x="147.5" y="-305.29" font-family="Times,serif" font-size="14.00">3</text>
</g>
<!-- 4 -->
<g id="node5" class="node">
<title>4</title>
<ellipse fill="none" stroke="black" cx="309.5" cy="-308.99" rx="18" ry="18"/>
<text text-anchor="middle" x="309.5" y="-305.29" font-family="Times,serif" font-size="14.00">4</text>
</g>
<!-- 6 -->
<g id="node7" class="node">
<title>6</title>
<ellipse fill="none" stroke="black" cx="417.5" cy="-199.49" rx="18" ry="18"/>
<text text-anchor="middle" x="417.5" y="-195.79" font-family="Times,serif" font-size="14.00">6</text>
</g>
<!-- 4&#45;&gt;6 -->
<g id="edge5" class="edge">
<title>4&#45;&gt;6</title>
<path fill="none" stroke="blue" d="M325.06,-299.33C342.6,-288.98 371.18,-270.31 390.5,-248.49 396.54,-241.67 401.82,-233.28 406.07,-225.43"/>
<polygon fill="blue" stroke="blue" points="409.32,-226.77 410.73,-216.27 403.08,-223.6 409.32,-226.77"/>
<text text-anchor="middle" x="408.5" y="-260.29" font-family="Times,serif" font-size="14.00">&#45;5.401000</text>
</g>
<!-- 5 -->
<g id="node6" class="node">
<title>5</title>
<ellipse fill="none" stroke="black" cx="471.5" cy="-199.49" rx="18" ry="18"/>
<text text-anchor="middle" x="471.5" y="-195.79" font-family="Times,serif" font-size="14.00">5</text>
</g>
<!-- 14 -->
<g id="node18" class="node">
<title>14</title>
<ellipse fill="none" stroke="black" cx="397.5" cy="-109.49" rx="19.5" ry="19.5"/>
<text text-anchor="middle" x="397.5" y="-105.79" font-family="Times,serif" font-size="14.00">14</text>
</g>
<!-- 6&#45;&gt;14 -->
<g id="edge9" class="edge">
<title>6&#45;&gt;14</title>
<path fill="none" stroke="blue" d="M413.64,-181.52C410.87,-169.31 407.06,-152.55 403.84,-138.38"/>
<polygon fill="blue" stroke="blue" points="407.25,-137.6 401.62,-128.62 400.42,-139.15 407.25,-137.6"/>
<text text-anchor="middle" x="436.5" y="-150.79" font-family="Times,serif" font-size="14.00">&#45;7.410000</text>
</g>
<!-- 7 -->
<g id="node8" class="node">
<title>7</title>
<ellipse fill="none" stroke="black" cx="363.5" cy="-199.49" rx="18" ry="18"/>
<text text-anchor="middle" x="363.5" y="-195.79" font-family="Times,serif" font-size="14.00">7</text>
</g>
<!-- 8 -->
<g id="node9" class="node">
<title>8</title>
<ellipse fill="none" stroke="black" cx="309.5" cy="-199.49" rx="18" ry="18"/>
<text text-anchor="middle" x="309.5" y="-195.79" font-family="Times,serif" font-size="14.00">8</text>
</g>
<!-- 15 -->
<g id="node12" class="node">
<title>15</title>
<ellipse fill="none" stroke="black" cx="255.5" cy="-109.49" rx="19.5" ry="19.5"/>
<text text-anchor="middle" x="255.5" y="-105.79" font-family="Times,serif" font-size="14.00">15</text>
</g>
<!-- 9&#45;&gt;15 -->
<g id="edge2" class="edge">
<title>9&#45;&gt;15</title>
<path fill="none" stroke="red" d="M255.5,-181.11C255.5,-169.13 255.5,-152.95 255.5,-139.09"/>
<polygon fill="red" stroke="red" points="259,-139.06 255.5,-129.06 252,-139.06 259,-139.06"/>
<text text-anchor="middle" x="281.5" y="-150.79" font-family="Times,serif" font-size="14.00">1.340000</text>
</g>
<!-- 24 -->
<g id="node19" class="node">
<title>24</title>
<ellipse fill="none" stroke="black" cx="323.5" cy="-109.49" rx="19.5" ry="19.5"/>
<text text-anchor="middle" x="323.5" y="-105.79" font-family="Times,serif" font-size="14.00">24</text>
</g>
<!-- 9&#45;&gt;24 -->
<g id="edge10" class="edge">
<title>9&#45;&gt;24</title>
<path fill="none" stroke="blue" d="M267.34,-185.75C271.79,-181.46 277.09,-176.9 282.5,-173.49 294.23,-166.1 302.45,-172.5 311.5,-161.99 316.98,-155.64 320.07,-147.25 321.79,-139.1"/>
<polygon fill="blue" stroke="blue" points="325.27,-139.48 323.3,-129.07 318.35,-138.44 325.27,-139.48"/>
<text text-anchor="middle" x="347.5" y="-150.79" font-family="Times,serif" font-size="14.00">&#45;1.858000</text>
</g>
<!-- 18 -->
<g id="node11" class="node">
<title>18</title>
<ellipse fill="none" stroke="black" cx="580.5" cy="-308.99" rx="19.5" ry="19.5"/>
<text text-anchor="middle" x="580.5" y="-305.29" font-family="Times,serif" font-size="14.00">18</text>
</g>
<!-- 18&#45;&gt;18 -->
<g id="edge1" class="edge">
<title>18&#45;&gt;18</title>
<path fill="none" stroke="red" d="M598.63,-316.84C608.71,-318.31 618,-315.69 618,-308.99 618,-304.7 614.19,-302.08 608.8,-301.14"/>
<polygon fill="red" stroke="red" points="608.63,-297.64 598.63,-301.13 608.63,-304.64 608.63,-297.64"/>
<text text-anchor="middle" x="644" y="-305.29" font-family="Times,serif" font-size="14.00">3.773000</text>
</g>
<!-- 22 -->
<g id="node13" class="node">
<title>22</title>
<ellipse fill="none" stroke="black" cx="490.5" cy="-418.49" rx="19.5" ry="19.5"/>
<text text-anchor="middle" x="490.5" y="-414.79" font-family="Times,serif" font-size="14.00">22</text>
</g>
<!-- 13 -->
<g id="node14" class="node">
<title>13</title>
<ellipse fill="none" stroke="black" cx="425.5" cy="-19.5" rx="19.5" ry="19.5"/>
<text text-anchor="middle" x="425.5" y="-15.8" font-family="Times,serif" font-size="14.00">13</text>
</g>
<!-- 22&#45;&gt;13 -->
<g id="edge3" class="edge">
<title>22&#45;&gt;13</title>
<path fill="none" stroke="blue" d="M498.15,-400.24C510.24,-370.93 531.7,-309.42 524.5,-256.49 513.31,-174.22 465.71,-86.31 440.81,-44.84"/>
<polygon fill="blue" stroke="blue" points="443.77,-42.96 435.58,-36.24 437.79,-46.6 443.77,-42.96"/>
<text text-anchor="middle" x="550.5" y="-195.79" font-family="Times,serif" font-size="14.00">&#45;0.588000</text>
</g>
<!-- 17 -->
<g id="node17" class="node">
<title>17</title>
<ellipse fill="none" stroke="black" cx="471.5" cy="-308.99" rx="19.5" ry="19.5"/>
<text text-anchor="middle" x="471.5" y="-305.29" font-family="Times,serif" font-size="14.00">17</text>
</g>
<!-- 22&#45;&gt;17 -->
<g id="edge7" class="edge">
<title>22&#45;&gt;17</title>
<path fill="none" stroke="blue" d="M473.27,-409.27C462.55,-403.12 449.68,-393.61 443.5,-380.99 435.73,-365.12 443.65,-346.52 453.02,-332.34"/>
<polygon fill="blue" stroke="blue" points="455.92,-334.31 458.92,-324.15 450.24,-330.22 455.92,-334.31"/>
<text text-anchor="middle" x="471.5" y="-369.79" font-family="Times,serif" font-size="14.00">&#45;9.916000</text>
</g>
<!-- 17&#45;&gt;5 -->
<g id="edge8" class="edge">
<title>17&#45;&gt;5</title>
<path fill="none" stroke="red" d="M471.5,-289.26C471.5,-272.29 471.5,-247.06 471.5,-227.83"/>
<polygon fill="red" stroke="red" points="475,-227.58 471.5,-217.58 468,-227.58 475,-227.58"/>
<text text-anchor="middle" x="497.5" y="-260.29" font-family="Times,serif" font-size="14.00">9.299000</text>
</g>
<!-- 14&#45;&gt;13 -->
<g id="edge12" class="edge">
<title>14&#45;&gt;13</title>
<path fill="none" stroke="red" d="M392.37,-90.32C390.43,-80.21 389.52,-67.57 393.5,-57 395.74,-51.03 399.45,-45.41 403.56,-40.45"/>
<polygon fill="red" stroke="red" points="406.45,-42.48 410.68,-32.77 401.32,-37.72 406.45,-42.48"/>
<text text-anchor="middle" x="419.5" y="-60.8" font-family="Times,serif" font-size="14.00">0.868000</text>
</g>
<!-- 23 -->
<g id="node20" class="node">
<title>23</title>
<ellipse fill="none" stroke="black" cx="580.5" cy="-418.49" rx="19.5" ry="19.5"/>
<text text-anchor="middle" x="580.5" y="-414.79" font-family="Times,serif" font-size="14.00">23</text>
</g>
<!-- 23&#45;&gt;18 -->
<g id="edge13" class="edge">
<title>23&#45;&gt;18</title>
<path fill="none" stroke="red" d="M580.5,-398.76C580.5,-382.19 580.5,-357.76 580.5,-338.71"/>
<polygon fill="red" stroke="red" points="584,-338.5 580.5,-328.5 577,-338.5 584,-338.5"/>
<text text-anchor="middle" x="606.5" y="-369.79" font-family="Times,serif" font-size="14.00">8.808000</text>
</g>
<!-- 21 -->
<g id="node21" class="node">
<title>21</title>
<ellipse fill="none" stroke="black" cx="19.5" cy="-308.99" rx="19.5" ry="19.5"/>
<text text-anchor="middle" x="19.5" y="-305.29" font-family="Times,serif" font-size="14.00">21</text>
</g>
<!-- 21&#45;&gt;12 -->
<g id="edge14" class="edge">
<title>21&#45;&gt;12</title>
<path fill="none" stroke="red" d="M19.5,-289.26C19.5,-272.69 19.5,-248.26 19.5,-229.21"/>
<polygon fill="red" stroke="red" points="23,-229 19.5,-219 16,-229 23,-229"/>
<text text-anchor="middle" x="45.5" y="-260.29" font-family="Times,serif" font-size="14.00">9.754000</text>
</g>
</g>
</svg>
