<?xml version="1.0" encoding="UTF-8" standalone="no"?>
<!DOCTYPE svg PUBLIC "-//W3C//DTD SVG 1.1//EN"
 "http://www.w3.org/Graphics/SVG/1.1/DTD/svg11.dtd">
<!-- Generated by graphviz version 2.43.0 (0)
 -->
<!-- Title: Evolutional_Graph_Neural_Network Pages: 1 -->
<svg width="1590pt" height="574pt"
 viewBox="0.00 0.00 1589.54 574.49" xmlns="http://www.w3.org/2000/svg" xmlns:xlink="http://www.w3.org/1999/xlink">
<g id="graph0" class="graph" transform="scale(1 1) rotate(0) translate(4 570.49)">
<title>Evolutional_Graph_Neural_Network</title>
<polygon fill="white" stroke="transparent" points="-4,4 -4,-570.49 1585.54,-570.49 1585.54,4 -4,4"/>
<g id="clust1" class="cluster">
<title>cluster_0</title>
<polygon fill="none" stroke="black" points="136.54,-395.99 136.54,-493.99 404.54,-493.99 404.54,-395.99 136.54,-395.99"/>
<text text-anchor="middle" x="270.54" y="-478.79" font-family="Times,serif" font-size="14.00">Input Nodes</text>
</g>
<g id="clust2" class="cluster">
<title>cluster_1</title>
<polygon fill="none" stroke="black" points="323.54,-173.49 323.54,-361.49 492.54,-361.49 492.54,-173.49 323.54,-173.49"/>
<text text-anchor="middle" x="408.04" y="-346.29" font-family="Times,serif" font-size="14.00">Output Nodes</text>
</g>
<!-- 0 -->
<g id="node1" class="node">
<title>0</title>
<ellipse fill="none" stroke="black" cx="216.54" cy="-421.99" rx="18" ry="18"/>
<text text-anchor="middle" x="216.54" y="-418.29" font-family="Times,serif" font-size="14.00">0</text>
</g>
<!-- 6 -->
<g id="node7" class="node">
<title>6</title>
<ellipse fill="none" stroke="black" cx="349.54" cy="-199.49" rx="18" ry="18"/>
<text text-anchor="middle" x="349.54" y="-195.79" font-family="Times,serif" font-size="14.00">6</text>
</g>
<!-- 0&#45;&gt;6 -->
<g id="edge2" class="edge">
<title>0&#45;&gt;6</title>
<path fill="none" stroke="red" d="M208.57,-405.59C194.87,-376.78 170.7,-313.69 196.54,-269.99 222.62,-225.88 284.95,-209.58 321.5,-203.7"/>
<polygon fill="red" stroke="red" points="322.12,-207.14 331.51,-202.24 321.11,-200.22 322.12,-207.14"/>
<text text-anchor="middle" x="222.54" y="-285.79" font-family="Times,serif" font-size="14.00">7.763000</text>
</g>
<!-- 12 -->
<g id="node13" class="node">
<title>12</title>
<ellipse fill="none" stroke="black" cx="1126.54" cy="-199.49" rx="19.5" ry="19.5"/>
<text text-anchor="middle" x="1126.54" y="-195.79" font-family="Times,serif" font-size="14.00">12</text>
</g>
<!-- 0&#45;&gt;12 -->
<g id="edge35" class="edge">
<title>0&#45;&gt;12</title>
<path fill="none" stroke="blue" d="M227.55,-407.4C232,-402.92 237.51,-398.45 243.54,-395.99 285.32,-378.93 604.7,-389.57 649.54,-384.49 683.32,-380.66 690.74,-373.15 724.54,-369.49 736.42,-368.2 1145.17,-368.9 1154.54,-361.49 1199.01,-326.29 1209.56,-286.85 1182.54,-236.99 1176.38,-225.63 1164.98,-217.24 1154.07,-211.4"/>
<polygon fill="blue" stroke="blue" points="1155.27,-208.09 1144.75,-206.9 1152.23,-214.4 1155.27,-208.09"/>
<text text-anchor="middle" x="1224.54" y="-285.79" font-family="Times,serif" font-size="14.00">&#45;3.772000</text>
</g>
<!-- 1 -->
<g id="node2" class="node">
<title>1</title>
<ellipse fill="none" stroke="black" cx="378.54" cy="-421.99" rx="18" ry="18"/>
<text text-anchor="middle" x="378.54" y="-418.29" font-family="Times,serif" font-size="14.00">1</text>
</g>
<!-- 11 -->
<g id="node17" class="node">
<title>11</title>
<ellipse fill="none" stroke="black" cx="743.54" cy="-421.99" rx="19.5" ry="19.5"/>
<text text-anchor="middle" x="743.54" y="-418.29" font-family="Times,serif" font-size="14.00">11</text>
</g>
<!-- 1&#45;&gt;11 -->
<g id="edge33" class="edge">
<title>1&#45;&gt;11</title>
<path fill="none" stroke="blue" d="M388.82,-436.97C401.79,-454.43 425.91,-482.36 454.54,-493.99 509.72,-516.39 530.42,-507.99 588.54,-494.99 637.26,-484.09 688.72,-456.1 718.39,-438.12"/>
<polygon fill="blue" stroke="blue" points="720.55,-440.9 727.22,-432.67 716.87,-434.94 720.55,-440.9"/>
<text text-anchor="middle" x="560.54" y="-505.79" font-family="Times,serif" font-size="14.00">&#45;2.413000</text>
</g>
<!-- 2 -->
<g id="node3" class="node">
<title>2</title>
<ellipse fill="none" stroke="black" cx="270.54" cy="-421.99" rx="18" ry="18"/>
<text text-anchor="middle" x="270.54" y="-418.29" font-family="Times,serif" font-size="14.00">2</text>
</g>
<!-- 5 -->
<g id="node6" class="node">
<title>5</title>
<ellipse fill="none" stroke="black" cx="403.54" cy="-199.49" rx="18" ry="18"/>
<text text-anchor="middle" x="403.54" y="-195.79" font-family="Times,serif" font-size="14.00">5</text>
</g>
<!-- 2&#45;&gt;5 -->
<g id="edge8" class="edge">
<title>2&#45;&gt;5</title>
<path fill="none" stroke="red" d="M266.63,-404.41C260.63,-374.78 252.48,-311.91 279.54,-269.99 305.95,-229.07 334.82,-244.13 376.54,-218.99 377.85,-218.2 379.18,-217.37 380.51,-216.53"/>
<polygon fill="red" stroke="red" points="382.77,-219.23 389.17,-210.79 378.9,-213.4 382.77,-219.23"/>
<text text-anchor="middle" x="305.54" y="-285.79" font-family="Times,serif" font-size="14.00">6.124000</text>
</g>
<!-- 8 -->
<g id="node9" class="node">
<title>8</title>
<ellipse fill="none" stroke="black" cx="358.54" cy="-289.49" rx="18" ry="18"/>
<text text-anchor="middle" x="358.54" y="-285.79" font-family="Times,serif" font-size="14.00">8</text>
</g>
<!-- 2&#45;&gt;8 -->
<g id="edge6" class="edge">
<title>2&#45;&gt;8</title>
<path fill="none" stroke="red" d="M277.66,-405.05C283.44,-393.73 292.6,-378.91 304.54,-369.49 312.71,-363.04 318.91,-368.57 326.54,-361.49 339.26,-349.68 347.27,-331.86 352.1,-317.03"/>
<polygon fill="red" stroke="red" points="355.48,-317.93 354.95,-307.35 348.77,-315.95 355.48,-317.93"/>
<text text-anchor="middle" x="330.54" y="-373.29" font-family="Times,serif" font-size="14.00">9.956000</text>
</g>
<!-- 9 -->
<g id="node10" class="node">
<title>9</title>
<ellipse fill="none" stroke="black" cx="466.54" cy="-289.49" rx="18" ry="18"/>
<text text-anchor="middle" x="466.54" y="-285.79" font-family="Times,serif" font-size="14.00">9</text>
</g>
<!-- 2&#45;&gt;9 -->
<g id="edge40" class="edge">
<title>2&#45;&gt;9</title>
<path fill="none" stroke="red" d="M281.79,-407.93C286.26,-403.5 291.73,-398.94 297.54,-395.99 321.36,-383.89 331.78,-394.53 356.54,-384.49 367.85,-379.9 368.1,-373.73 379.54,-369.49 404.76,-360.13 418.45,-378.19 439.54,-361.49 452.98,-350.84 459.73,-332.7 463.12,-317.42"/>
<polygon fill="red" stroke="red" points="466.59,-317.9 464.97,-307.43 459.71,-316.62 466.59,-317.9"/>
<text text-anchor="middle" x="405.54" y="-373.29" font-family="Times,serif" font-size="14.00">4.259000</text>
</g>
<!-- 14 -->
<g id="node12" class="node">
<title>14</title>
<ellipse fill="none" stroke="black" cx="1059.54" cy="-199.49" rx="19.5" ry="19.5"/>
<text text-anchor="middle" x="1059.54" y="-195.79" font-family="Times,serif" font-size="14.00">14</text>
</g>
<!-- 2&#45;&gt;14 -->
<g id="edge3" class="edge">
<title>2&#45;&gt;14</title>
<path fill="none" stroke="blue" d="M281.55,-407.42C286,-402.93 291.51,-398.46 297.54,-395.99 333.74,-381.12 610.92,-390.8 649.54,-384.49 672.44,-380.74 676.64,-373.21 699.54,-369.49 728.18,-364.84 934.23,-373.72 960.54,-361.49 1010.05,-338.46 998.95,-302.88 1042.54,-269.99 1057.14,-258.97 1069.84,-267.49 1079.54,-251.99 1085.03,-243.21 1082.33,-232.67 1077.37,-223.42"/>
<polygon fill="blue" stroke="blue" points="1080.18,-221.3 1071.88,-214.71 1074.26,-225.04 1080.18,-221.3"/>
<text text-anchor="middle" x="1070.54" y="-285.79" font-family="Times,serif" font-size="14.00">&#45;7.433000</text>
</g>
<!-- 3 -->
<g id="node4" class="node">
<title>3</title>
<ellipse fill="none" stroke="black" cx="324.54" cy="-421.99" rx="18" ry="18"/>
<text text-anchor="middle" x="324.54" y="-418.29" font-family="Times,serif" font-size="14.00">3</text>
</g>
<!-- 15 -->
<g id="node14" class="node">
<title>15</title>
<ellipse fill="none" stroke="black" cx="722.54" cy="-199.49" rx="19.5" ry="19.5"/>
<text text-anchor="middle" x="722.54" y="-195.79" font-family="Times,serif" font-size="14.00">15</text>
</g>
<!-- 3&#45;&gt;15 -->
<g id="edge29" class="edge">
<title>3&#45;&gt;15</title>
<path fill="none" stroke="blue" d="M335.56,-407.44C340.01,-402.96 345.52,-398.48 351.54,-395.99 412.15,-370.86 583.23,-401.69 646.54,-384.49 660.16,-380.79 661.3,-374.4 674.54,-369.49 689.91,-363.79 695.03,-366.79 710.54,-361.49 800.74,-330.62 814.61,-301.61 904.54,-269.99 936.88,-258.62 958.32,-278.91 979.54,-251.99 983.67,-246.75 983.91,-242.02 979.54,-236.99 977.68,-234.84 819.2,-213.42 752.06,-204.43"/>
<polygon fill="blue" stroke="blue" points="752.49,-200.96 742.11,-203.1 751.56,-207.89 752.49,-200.96"/>
<text text-anchor="middle" x="932.54" y="-285.79" font-family="Times,serif" font-size="14.00">&#45;4.106000</text>
</g>
<!-- 4 -->
<g id="node5" class="node">
<title>4</title>
<ellipse fill="none" stroke="black" cx="162.54" cy="-421.99" rx="18" ry="18"/>
<text text-anchor="middle" x="162.54" y="-418.29" font-family="Times,serif" font-size="14.00">4</text>
</g>
<!-- 4&#45;&gt;5 -->
<g id="edge24" class="edge">
<title>4&#45;&gt;5</title>
<path fill="none" stroke="red" d="M152.33,-406.72C132.87,-377.64 95.26,-310.81 128.54,-269.99 199.65,-182.77 272.97,-262.99 376.54,-218.99 378.12,-218.32 379.71,-217.55 381.27,-216.71"/>
<polygon fill="red" stroke="red" points="383.19,-219.64 389.86,-211.41 379.52,-213.68 383.19,-219.64"/>
<text text-anchor="middle" x="154.54" y="-285.79" font-family="Times,serif" font-size="14.00">9.507000</text>
</g>
<!-- 4&#45;&gt;6 -->
<g id="edge34" class="edge">
<title>4&#45;&gt;6</title>
<path fill="none" stroke="blue" d="M144.47,-419.79C112.27,-416.58 45.63,-404.76 16.54,-361.49 -6.15,-327.74 -4.62,-304.71 16.54,-269.99 48.4,-217.72 247.03,-204.53 321.44,-201.4"/>
<polygon fill="blue" stroke="blue" points="321.62,-204.9 331.48,-201.01 321.35,-197.91 321.62,-204.9"/>
<text text-anchor="middle" x="44.54" y="-285.79" font-family="Times,serif" font-size="14.00">&#45;5.401000</text>
</g>
<!-- 17 -->
<g id="node11" class="node">
<title>17</title>
<ellipse fill="none" stroke="black" cx="682.54" cy="-289.49" rx="19.5" ry="19.5"/>
<text text-anchor="middle" x="682.54" y="-285.79" font-family="Times,serif" font-size="14.00">17</text>
</g>
<!-- 4&#45;&gt;17 -->
<g id="edge27" class="edge">
<title>4&#45;&gt;17</title>
<path fill="none" stroke="blue" d="M173.57,-407.47C178.02,-402.99 183.53,-398.51 189.54,-395.99 239.19,-375.16 380.01,-400.09 431.54,-384.49 443.94,-380.73 444.45,-374.16 456.54,-369.49 473.45,-362.95 479.12,-366.52 496.54,-361.49 554.52,-344.75 619.92,-317.82 655.66,-302.39"/>
<polygon fill="blue" stroke="blue" points="657.15,-305.55 664.92,-298.35 654.36,-299.14 657.15,-305.55"/>
<text text-anchor="middle" x="484.54" y="-373.29" font-family="Times,serif" font-size="14.00">&#45;2.363000</text>
</g>
<!-- 5&#45;&gt;17 -->
<g id="edge26" class="edge">
<title>5&#45;&gt;17</title>
<path fill="none" stroke="blue" d="M420.11,-206.68C432.23,-210.92 449.18,-216.25 464.54,-218.99 498.51,-225.04 750.86,-211.9 774.54,-236.99 796.34,-260.09 746.3,-275.54 711.81,-283.09"/>
<polygon fill="blue" stroke="blue" points="710.78,-279.73 701.7,-285.18 712.2,-286.59 710.78,-279.73"/>
<text text-anchor="middle" x="807.54" y="-240.79" font-family="Times,serif" font-size="14.00">&#45;1.374000</text>
</g>
<!-- 6&#45;&gt;14 -->
<g id="edge38" class="edge">
<title>6&#45;&gt;14</title>
<path fill="none" stroke="blue" d="M363.33,-211.45C367.35,-214.37 371.91,-217.16 376.54,-218.99 465.31,-254.01 494.31,-239.98 589.54,-245.99 714.37,-253.87 913.81,-223.73 949.54,-218.99 976.97,-215.35 1007.99,-209.71 1030.08,-205.43"/>
<polygon fill="blue" stroke="blue" points="1031.01,-208.82 1040.15,-203.46 1029.66,-201.95 1031.01,-208.82"/>
<text text-anchor="middle" x="617.54" y="-240.79" font-family="Times,serif" font-size="14.00">&#45;7.410000</text>
</g>
<!-- 19 -->
<g id="node15" class="node">
<title>19</title>
<ellipse fill="none" stroke="black" cx="722.54" cy="-109.49" rx="19.5" ry="19.5"/>
<text text-anchor="middle" x="722.54" y="-105.79" font-family="Times,serif" font-size="14.00">19</text>
</g>
<!-- 6&#45;&gt;19 -->
<g id="edge23" class="edge">
<title>6&#45;&gt;19</title>
<path fill="none" stroke="blue" d="M360.77,-185.4C365.24,-180.97 370.71,-176.4 376.54,-173.49 383.7,-169.91 611.52,-129.89 693.51,-115.56"/>
<polygon fill="blue" stroke="blue" points="694.17,-119 703.42,-113.83 692.96,-112.1 694.17,-119"/>
<text text-anchor="middle" x="539.54" y="-150.79" font-family="Times,serif" font-size="14.00">&#45;1.861000</text>
</g>
<!-- 7 -->
<g id="node8" class="node">
<title>7</title>
<ellipse fill="none" stroke="black" cx="412.54" cy="-289.49" rx="18" ry="18"/>
<text text-anchor="middle" x="412.54" y="-285.79" font-family="Times,serif" font-size="14.00">7</text>
</g>
<!-- 8&#45;&gt;6 -->
<g id="edge25" class="edge">
<title>8&#45;&gt;6</title>
<path fill="none" stroke="blue" d="M354.18,-271.89C352.74,-265.69 351.32,-258.56 350.54,-251.99 349.62,-244.17 349.21,-235.65 349.07,-227.82"/>
<polygon fill="blue" stroke="blue" points="352.57,-227.7 349.03,-217.72 345.57,-227.73 352.57,-227.7"/>
<text text-anchor="middle" x="378.54" y="-240.79" font-family="Times,serif" font-size="14.00">&#45;2.657000</text>
</g>
<!-- 9&#45;&gt;5 -->
<g id="edge12" class="edge">
<title>9&#45;&gt;5</title>
<path fill="none" stroke="blue" d="M453.14,-277.24C445.59,-270.45 436.34,-261.32 429.54,-251.99 423.71,-243.99 418.51,-234.5 414.32,-225.85"/>
<polygon fill="blue" stroke="blue" points="417.4,-224.19 410.03,-216.57 411.05,-227.12 417.4,-224.19"/>
<text text-anchor="middle" x="457.54" y="-240.79" font-family="Times,serif" font-size="14.00">&#45;0.559000</text>
</g>
<!-- 9&#45;&gt;17 -->
<g id="edge1" class="edge">
<title>9&#45;&gt;17</title>
<path fill="none" stroke="blue" d="M484.58,-289.49C521.76,-289.49 607.19,-289.49 652.71,-289.49"/>
<polygon fill="blue" stroke="blue" points="652.84,-292.99 662.84,-289.49 652.84,-285.99 652.84,-292.99"/>
<text text-anchor="middle" x="573.79" y="-296.29" font-family="Times,serif" font-size="14.00">&#45;4.614000</text>
</g>
<!-- 9&#45;&gt;12 -->
<g id="edge4" class="edge">
<title>9&#45;&gt;12</title>
<path fill="none" stroke="red" d="M484.4,-286.45C517.78,-282.7 591.91,-274.68 654.54,-269.99 809.87,-258.36 852.36,-285.21 1004.54,-251.99 1039.29,-244.41 1076.59,-227.18 1100.67,-214.74"/>
<polygon fill="red" stroke="red" points="1102.62,-217.67 1109.83,-209.91 1099.35,-211.48 1102.62,-217.67"/>
<text text-anchor="middle" x="1075.54" y="-240.79" font-family="Times,serif" font-size="14.00">5.011000</text>
</g>
<!-- 9&#45;&gt;15 -->
<g id="edge31" class="edge">
<title>9&#45;&gt;15</title>
<path fill="none" stroke="red" d="M484.5,-286.94C537.87,-282.17 692.83,-267.14 709.54,-251.99 716,-246.13 719.46,-237.58 721.26,-229.12"/>
<polygon fill="red" stroke="red" points="724.75,-229.43 722.71,-219.03 717.82,-228.43 724.75,-229.43"/>
<text text-anchor="middle" x="744.54" y="-240.79" font-family="Times,serif" font-size="14.00">1.340000</text>
</g>
<!-- 24 -->
<g id="node22" class="node">
<title>24</title>
<ellipse fill="none" stroke="black" cx="608.54" cy="-199.49" rx="19.5" ry="19.5"/>
<text text-anchor="middle" x="608.54" y="-195.79" font-family="Times,serif" font-size="14.00">24</text>
</g>
<!-- 9&#45;&gt;24 -->
<g id="edge39" class="edge">
<title>9&#45;&gt;24</title>
<path fill="none" stroke="blue" d="M484.47,-287.63C525.87,-285.23 626.16,-276.92 646.54,-251.99 655.89,-240.56 645.29,-227.12 632.94,-216.83"/>
<polygon fill="blue" stroke="blue" points="634.83,-213.88 624.76,-210.59 630.58,-219.44 634.83,-213.88"/>
<text text-anchor="middle" x="677.54" y="-240.79" font-family="Times,serif" font-size="14.00">&#45;1.858000</text>
</g>
<!-- 17&#45;&gt;5 -->
<g id="edge37" class="edge">
<title>17&#45;&gt;5</title>
<path fill="none" stroke="red" d="M663.49,-284.7C634.93,-278.82 579.47,-266.64 533.54,-251.99 496.58,-240.2 455.11,-223.07 429.16,-211.85"/>
<polygon fill="red" stroke="red" points="430.26,-208.51 419.7,-207.72 427.47,-214.93 430.26,-208.51"/>
<text text-anchor="middle" x="559.54" y="-240.79" font-family="Times,serif" font-size="14.00">9.299000</text>
</g>
<!-- 17&#45;&gt;7 -->
<g id="edge11" class="edge">
<title>17&#45;&gt;7</title>
<path fill="none" stroke="red" d="M665.23,-298.71C633.09,-315.24 561.55,-349.34 496.54,-361.49 471.64,-366.14 460.36,-375.92 439.54,-361.49 425.37,-351.66 418.62,-333.42 415.42,-317.76"/>
<polygon fill="red" stroke="red" points="418.8,-316.75 413.72,-307.46 411.89,-317.89 418.8,-316.75"/>
<text text-anchor="middle" x="619.54" y="-373.29" font-family="Times,serif" font-size="14.00">0.097000</text>
</g>
<!-- 17&#45;&gt;14 -->
<g id="edge21" class="edge">
<title>17&#45;&gt;14</title>
<path fill="none" stroke="red" d="M701.46,-283.83C718.43,-279.77 744.04,-273.93 766.54,-269.99 827.47,-259.33 844.25,-265.8 904.54,-251.99 917.15,-249.1 990.58,-224.15 1031.69,-210.07"/>
<polygon fill="red" stroke="red" points="1033.06,-213.3 1041.38,-206.74 1030.79,-206.67 1033.06,-213.3"/>
<text text-anchor="middle" x="975.54" y="-240.79" font-family="Times,serif" font-size="14.00">0.688000</text>
</g>
<!-- 16 -->
<g id="node16" class="node">
<title>16</title>
<ellipse fill="none" stroke="black" cx="893.54" cy="-109.49" rx="19.5" ry="19.5"/>
<text text-anchor="middle" x="893.54" y="-105.79" font-family="Times,serif" font-size="14.00">16</text>
</g>
<!-- 14&#45;&gt;16 -->
<g id="edge9" class="edge">
<title>14&#45;&gt;16</title>
<path fill="none" stroke="blue" d="M1040.68,-193.79C1019.58,-188.07 984.78,-177.25 957.54,-161.99 942.17,-153.39 926.74,-141.1 914.88,-130.68"/>
<polygon fill="blue" stroke="blue" points="917.05,-127.93 907.28,-123.84 912.37,-133.14 917.05,-127.93"/>
<text text-anchor="middle" x="985.54" y="-150.79" font-family="Times,serif" font-size="14.00">&#45;4.597000</text>
</g>
<!-- 13 -->
<g id="node20" class="node">
<title>13</title>
<ellipse fill="none" stroke="black" cx="1483.54" cy="-19.5" rx="19.5" ry="19.5"/>
<text text-anchor="middle" x="1483.54" y="-15.8" font-family="Times,serif" font-size="14.00">13</text>
</g>
<!-- 14&#45;&gt;13 -->
<g id="edge41" class="edge">
<title>14&#45;&gt;13</title>
<path fill="none" stroke="red" d="M1075.78,-187.91C1082.76,-183.42 1091.02,-178.14 1098.54,-173.49 1160.16,-135.38 1172.01,-118.68 1238.54,-90 1313.5,-57.68 1407.76,-35.83 1454.5,-26.16"/>
<polygon fill="red" stroke="red" points="1455.42,-29.54 1464.53,-24.12 1454.03,-22.68 1455.42,-29.54"/>
<text text-anchor="middle" x="1264.54" y="-105.79" font-family="Times,serif" font-size="14.00">0.868000</text>
</g>
<!-- 15&#45;&gt;19 -->
<g id="edge5" class="edge">
<title>15&#45;&gt;19</title>
<path fill="none" stroke="red" d="M722.54,-179.83C722.54,-168.05 722.54,-152.59 722.54,-139.25"/>
<polygon fill="red" stroke="red" points="726.04,-139.13 722.54,-129.13 719.04,-139.13 726.04,-139.13"/>
<text text-anchor="middle" x="748.54" y="-150.79" font-family="Times,serif" font-size="14.00">5.198000</text>
</g>
<!-- 15&#45;&gt;19 -->
<g id="edge10" class="edge">
<title>15&#45;&gt;19</title>
<path fill="none" stroke="blue" d="M740.75,-192.08C753.86,-186.4 770.58,-176.69 778.54,-161.99 787.75,-145.01 768.15,-130.62 749.65,-121.4"/>
<polygon fill="blue" stroke="blue" points="751.07,-118.2 740.52,-117.19 748.13,-124.56 751.07,-118.2"/>
<text text-anchor="middle" x="808.54" y="-150.79" font-family="Times,serif" font-size="14.00">&#45;1.906000</text>
</g>
<!-- 18 -->
<g id="node18" class="node">
<title>18</title>
<ellipse fill="none" stroke="black" cx="1483.54" cy="-109.49" rx="19.5" ry="19.5"/>
<text text-anchor="middle" x="1483.54" y="-105.79" font-family="Times,serif" font-size="14.00">18</text>
</g>
<!-- 15&#45;&gt;18 -->
<g id="edge14" class="edge">
<title>15&#45;&gt;18</title>
<path fill="none" stroke="blue" d="M741.75,-194.71C770.05,-189.27 824.68,-179.26 871.54,-173.49 936.14,-165.54 952.74,-168.12 1017.54,-161.99 1182.82,-146.36 1380.55,-122.94 1454.1,-114.07"/>
<polygon fill="blue" stroke="blue" points="1454.52,-117.55 1464.03,-112.87 1453.68,-110.6 1454.52,-117.55"/>
<text text-anchor="middle" x="1186.54" y="-150.79" font-family="Times,serif" font-size="14.00">&#45;6.632000</text>
</g>
<!-- 10 -->
<g id="node19" class="node">
<title>10</title>
<ellipse fill="none" stroke="black" cx="722.54" cy="-19.5" rx="19.5" ry="19.5"/>
<text text-anchor="middle" x="722.54" y="-15.8" font-family="Times,serif" font-size="14.00">10</text>
</g>
<!-- 19&#45;&gt;10 -->
<g id="edge22" class="edge">
<title>19&#45;&gt;10</title>
<path fill="none" stroke="red" d="M722.54,-89.83C722.54,-78.05 722.54,-62.59 722.54,-49.26"/>
<polygon fill="red" stroke="red" points="726.04,-49.13 722.54,-39.13 719.04,-49.13 726.04,-49.13"/>
<text text-anchor="middle" x="748.54" y="-60.8" font-family="Times,serif" font-size="14.00">2.183000</text>
</g>
<!-- 16&#45;&gt;7 -->
<g id="edge17" class="edge">
<title>16&#45;&gt;7</title>
<path fill="none" stroke="blue" d="M875.37,-117.21C857.02,-124.14 827.97,-135.54 803.54,-146.99 790.76,-152.99 789.15,-158.24 775.54,-161.99 748.62,-169.41 543.82,-153.3 524.54,-173.49 510.57,-188.11 513.91,-201.79 524.54,-218.99 528.9,-226.04 582.27,-226.78 560.54,-251.99 542.79,-272.58 464.84,-260.05 439.54,-269.99 437.94,-270.62 436.34,-271.36 434.77,-272.17"/>
<polygon fill="blue" stroke="blue" points="432.88,-269.22 426.15,-277.41 436.51,-275.2 432.88,-269.22"/>
<text text-anchor="middle" x="552.54" y="-195.79" font-family="Times,serif" font-size="14.00">&#45;5.086000</text>
</g>
<!-- 16&#45;&gt;17 -->
<g id="edge7" class="edge">
<title>16&#45;&gt;17</title>
<path fill="none" stroke="red" d="M891.9,-129.24C888.2,-159.71 876.39,-219.84 839.54,-251.99 837.1,-254.12 756.06,-272.26 711.4,-282.14"/>
<polygon fill="red" stroke="red" points="710.42,-278.77 701.41,-284.34 711.93,-285.6 710.42,-278.77"/>
<text text-anchor="middle" x="908.54" y="-195.79" font-family="Times,serif" font-size="14.00">7.084000</text>
</g>
<!-- 11&#45;&gt;8 -->
<g id="edge19" class="edge">
<title>11&#45;&gt;8</title>
<path fill="none" stroke="red" d="M728.23,-409.6C710.39,-397.08 679.53,-377.65 649.54,-369.49 621.22,-361.78 409.44,-378.51 385.54,-361.49 371.49,-351.48 364.75,-333.16 361.51,-317.64"/>
<polygon fill="red" stroke="red" points="364.91,-316.75 359.79,-307.48 358.01,-317.92 364.91,-316.75"/>
<text text-anchor="middle" x="710.54" y="-373.29" font-family="Times,serif" font-size="14.00">4.428000</text>
</g>
<!-- 11&#45;&gt;12 -->
<g id="edge18" class="edge">
<title>11&#45;&gt;12</title>
<path fill="none" stroke="blue" d="M763.26,-420.24C853.81,-416.6 1226.76,-399.38 1260.54,-361.49 1298.16,-319.29 1280.72,-269.59 1234.54,-236.99 1221.57,-227.83 1182.41,-215.81 1155,-208.12"/>
<polygon fill="blue" stroke="blue" points="1155.72,-204.68 1145.15,-205.39 1153.86,-211.43 1155.72,-204.68"/>
<text text-anchor="middle" x="1308.54" y="-285.79" font-family="Times,serif" font-size="14.00">&#45;8.064000</text>
</g>
<!-- 11&#45;&gt;16 -->
<g id="edge15" class="edge">
<title>11&#45;&gt;16</title>
<path fill="none" stroke="blue" d="M763.25,-419.93C869.44,-414.17 1369.37,-385.82 1390.54,-361.49 1417.24,-330.81 1413.47,-303.58 1390.54,-269.99 1378.16,-251.86 1362.38,-264.79 1344.54,-251.99 1307.5,-225.42 1318.17,-196.02 1278.54,-173.49 1217.53,-138.8 1002.97,-118.99 923.47,-112.7"/>
<polygon fill="blue" stroke="blue" points="923.42,-109.19 913.18,-111.91 922.88,-116.17 923.42,-109.19"/>
<text text-anchor="middle" x="1372.54" y="-240.79" font-family="Times,serif" font-size="14.00">&#45;7.755000</text>
</g>
<!-- 11&#45;&gt;18 -->
<g id="edge13" class="edge">
<title>11&#45;&gt;18</title>
<path fill="none" stroke="blue" d="M763.28,-420.63C858.82,-418.81 1273.91,-409.55 1400.54,-384.49 1431.01,-378.46 1444.55,-383.43 1466.54,-361.49 1533.05,-295.12 1520.76,-254.62 1536.54,-161.99 1537.66,-155.42 1539.64,-152.89 1536.54,-146.99 1530.93,-136.32 1520.63,-128.15 1510.59,-122.28"/>
<polygon fill="blue" stroke="blue" points="1512.06,-119.1 1501.58,-117.53 1508.79,-125.29 1512.06,-119.1"/>
<text text-anchor="middle" x="1553.54" y="-240.79" font-family="Times,serif" font-size="14.00">&#45;1.376000</text>
</g>
<!-- 11&#45;&gt;13 -->
<g id="edge28" class="edge">
<title>11&#45;&gt;13</title>
<path fill="none" stroke="blue" d="M763.07,-421.14C837.13,-421.45 1107.55,-419.94 1326.54,-384.49 1336.41,-382.89 1407.44,-369.41 1413.54,-361.49 1464.66,-295.1 1378.73,-254.65 1399.54,-173.49 1412.37,-123.48 1445.33,-72.27 1465.94,-43.61"/>
<polygon fill="blue" stroke="blue" points="1468.82,-45.6 1471.9,-35.47 1463.17,-41.47 1468.82,-45.6"/>
<text text-anchor="middle" x="1427.54" y="-195.79" font-family="Times,serif" font-size="14.00">&#45;4.450000</text>
</g>
<!-- 18&#45;&gt;18 -->
<g id="edge30" class="edge">
<title>18&#45;&gt;18</title>
<path fill="none" stroke="red" d="M1501.67,-117.35C1511.76,-118.82 1521.04,-116.2 1521.04,-109.49 1521.04,-105.2 1517.23,-102.58 1511.84,-101.64"/>
<polygon fill="red" stroke="red" points="1511.68,-98.14 1501.67,-101.64 1511.67,-105.14 1511.68,-98.14"/>
<text text-anchor="middle" x="1547.04" y="-105.79" font-family="Times,serif" font-size="14.00">3.773000</text>
</g>
<!-- 18&#45;&gt;13 -->
<g id="edge20" class="edge">
<title>18&#45;&gt;13</title>
<path fill="none" stroke="red" d="M1483.54,-89.83C1483.54,-78.05 1483.54,-62.59 1483.54,-49.26"/>
<polygon fill="red" stroke="red" points="1487.04,-49.13 1483.54,-39.13 1480.04,-49.13 1487.04,-49.13"/>
<text text-anchor="middle" x="1509.54" y="-60.8" font-family="Times,serif" font-size="14.00">5.763000</text>
</g>
<!-- 10&#45;&gt;6 -->
<g id="edge16" class="edge">
<title>10&#45;&gt;6</title>
<path fill="none" stroke="blue" d="M704.89,-28.06C659.64,-47.48 535.88,-100.81 433.54,-146.99 408.08,-158.48 399.74,-157.92 376.54,-173.49 374.05,-175.16 371.57,-177.06 369.18,-179.04"/>
<polygon fill="blue" stroke="blue" points="366.61,-176.64 361.49,-185.92 371.28,-181.86 366.61,-176.64"/>
<text text-anchor="middle" x="588.54" y="-105.79" font-family="Times,serif" font-size="14.00">&#45;1.772000</text>
</g>
<!-- 22 -->
<g id="node21" class="node">
<title>22</title>
<ellipse fill="none" stroke="black" cx="482.54" cy="-421.99" rx="19.5" ry="19.5"/>
<text text-anchor="middle" x="482.54" y="-418.29" font-family="Times,serif" font-size="14.00">22</text>
</g>
<!-- 22&#45;&gt;17 -->
<g id="edge36" class="edge">
<title>22&#45;&gt;17</title>
<path fill="none" stroke="blue" d="M494.93,-406.24C504.68,-395.24 518.99,-380.29 533.54,-369.49 572.78,-340.34 624.2,-315.62 655.23,-301.94"/>
<polygon fill="blue" stroke="blue" points="656.77,-305.09 664.55,-297.89 653.98,-298.66 656.77,-305.09"/>
<text text-anchor="middle" x="561.54" y="-373.29" font-family="Times,serif" font-size="14.00">&#45;9.916000</text>
</g>
<!-- 22&#45;&gt;13 -->
<g id="edge32" class="edge">
<title>22&#45;&gt;13</title>
<path fill="none" stroke="blue" d="M501.84,-418.57C541.7,-413.67 636.06,-402.44 715.54,-395.99 724.21,-395.28 1334.56,-367.8 1340.54,-361.49 1368.49,-331.95 1355.56,-307.78 1340.54,-269.99 1336.48,-259.76 1330.12,-260.81 1323.54,-251.99 1292.43,-210.23 1245.83,-192.28 1271.54,-146.99 1282.02,-128.53 1403.24,-62.89 1457.53,-34.15"/>
<polygon fill="blue" stroke="blue" points="1459.33,-37.15 1466.54,-29.39 1456.06,-30.96 1459.33,-37.15"/>
<text text-anchor="middle" x="1320.54" y="-195.79" font-family="Times,serif" font-size="14.00">&#45;0.588000</text>
</g>
<!-- 23 -->
<g id="node23" class="node">
<title>23</title>
<ellipse fill="none" stroke="black" cx="1483.54" cy="-199.49" rx="19.5" ry="19.5"/>
<text text-anchor="middle" x="1483.54" y="-195.79" font-family="Times,serif" font-size="14.00">23</text>
</g>
<!-- 23&#45;&gt;18 -->
<g id="edge42" class="edge">
<title>23&#45;&gt;18</title>
<path fill="none" stroke="red" d="M1483.54,-179.83C1483.54,-168.05 1483.54,-152.59 1483.54,-139.25"/>
<polygon fill="red" stroke="red" points="1487.04,-139.13 1483.54,-129.13 1480.04,-139.13 1487.04,-139.13"/>
<text text-anchor="middle" x="1509.54" y="-150.79" font-family="Times,serif" font-size="14.00">8.808000</text>
</g>
<!-- 21 -->
<g id="node24" class="node">
<title>21</title>
<ellipse fill="none" stroke="black" cx="1126.54" cy="-289.49" rx="19.5" ry="19.5"/>
<text text-anchor="middle" x="1126.54" y="-285.79" font-family="Times,serif" font-size="14.00">21</text>
</g>
<!-- 21&#45;&gt;12 -->
<g id="edge43" class="edge">
<title>21&#45;&gt;12</title>
<path fill="none" stroke="red" d="M1126.54,-269.83C1126.54,-258.04 1126.54,-242.58 1126.54,-229.25"/>
<polygon fill="red" stroke="red" points="1130.04,-229.13 1126.54,-219.13 1123.04,-229.13 1130.04,-229.13"/>
<text text-anchor="middle" x="1152.54" y="-240.79" font-family="Times,serif" font-size="14.00">9.754000</text>
</g>
</g>
</svg>
