<?xml version="1.0" encoding="UTF-8" standalone="no"?>
<!DOCTYPE svg PUBLIC "-//W3C//DTD SVG 1.1//EN"
 "http://www.w3.org/Graphics/SVG/1.1/DTD/svg11.dtd">
<!-- Generated by graphviz version 2.43.0 (0)
 -->
<!-- Title: Evolutional_Graph_Neural_Network Pages: 1 -->
<svg width="120pt" height="207pt"
 viewBox="0.00 0.00 120.00 207.00" xmlns="http://www.w3.org/2000/svg" xmlns:xlink="http://www.w3.org/1999/xlink">
<g id="graph0" class="graph" transform="scale(1 1) rotate(0) translate(4 203)">
<title>Evolutional_Graph_Neural_Network</title>
<polygon fill="white" stroke="transparent" points="-4,4 -4,-203 116,-203 116,4 -4,4"/>
<g id="clust1" class="cluster">
<title>cluster_0</title>
<polygon fill="none" stroke="black" points="12,-116 12,-191 95,-191 95,-116 12,-116"/>
<text text-anchor="middle" x="53.5" y="-175.8" font-family="Times,serif" font-size="14.00">Input Nodes</text>
</g>
<g id="clust2" class="cluster">
<title>cluster_1</title>
<polygon fill="none" stroke="black" points="8,-8 8,-83 100,-83 100,-8 8,-8"/>
<text text-anchor="middle" x="54" y="-67.8" font-family="Times,serif" font-size="14.00">Output Nodes</text>
</g>
<!-- 0 -->
<g id="node1" class="node">
<title>0</title>
<ellipse fill="none" stroke="black" cx="53" cy="-142" rx="18" ry="18"/>
<text text-anchor="middle" x="53" y="-138.3" font-family="Times,serif" font-size="14.00">0</text>
</g>
<!-- 1 -->
<g id="node2" class="node">
<title>1</title>
<ellipse fill="none" stroke="black" cx="43" cy="-34" rx="18" ry="18"/>
<text text-anchor="middle" x="43" y="-30.3" font-family="Times,serif" font-size="14.00">1</text>
</g>
<!-- 0&#45;&gt;1 -->
<g id="edge1" class="edge">
<title>0&#45;&gt;1</title>
<path fill="none" stroke="blue" d="M51.39,-123.97C49.82,-107.28 47.39,-81.58 45.56,-62.08"/>
<polygon fill="blue" stroke="blue" points="49.03,-61.62 44.6,-51.99 42.06,-62.27 49.03,-61.62"/>
<text text-anchor="middle" x="80.5" y="-94.8" font-family="Times,serif" font-size="14.00">&#45;20.000000</text>
</g>
</g>
</svg>
