<?xml version="1.0" encoding="UTF-8" standalone="no"?>
<!DOCTYPE svg PUBLIC "-//W3C//DTD SVG 1.1//EN"
 "http://www.w3.org/Graphics/SVG/1.1/DTD/svg11.dtd">
<!-- Generated by graphviz version 2.43.0 (0)
 -->
<!-- Title: Evolutional_Graph_Neural_Network Pages: 1 -->
<svg width="151pt" height="294pt"
 viewBox="0.00 0.00 151.00 294.00" xmlns="http://www.w3.org/2000/svg" xmlns:xlink="http://www.w3.org/1999/xlink">
<g id="graph0" class="graph" transform="scale(1 1) rotate(0) translate(4 290)">
<title>Evolutional_Graph_Neural_Network</title>
<polygon fill="white" stroke="transparent" points="-4,4 -4,-290 147,-290 147,4 -4,4"/>
<g id="clust1" class="cluster">
<title>cluster_0</title>
<polygon fill="none" stroke="black" points="8,-203 8,-278 91,-278 91,-203 8,-203"/>
<text text-anchor="middle" x="49.5" y="-262.8" font-family="Times,serif" font-size="14.00">Input Nodes</text>
</g>
<g id="clust2" class="cluster">
<title>cluster_1</title>
<polygon fill="none" stroke="black" points="16,-8 16,-83 108,-83 108,-8 16,-8"/>
<text text-anchor="middle" x="62" y="-67.8" font-family="Times,serif" font-size="14.00">Output Nodes</text>
</g>
<!-- 0 -->
<g id="node1" class="node">
<title>0</title>
<ellipse fill="none" stroke="black" cx="49" cy="-229" rx="18" ry="18"/>
<text text-anchor="middle" x="49" y="-225.3" font-family="Times,serif" font-size="14.00">0</text>
</g>
<!-- 2 -->
<g id="node3" class="node">
<title>2</title>
<ellipse fill="none" stroke="black" cx="49" cy="-142" rx="18" ry="18"/>
<text text-anchor="middle" x="49" y="-138.3" font-family="Times,serif" font-size="14.00">2</text>
</g>
<!-- 0&#45;&gt;2 -->
<g id="edge1" class="edge">
<title>0&#45;&gt;2</title>
<path fill="none" stroke="red" d="M49,-210.8C49,-199.16 49,-183.55 49,-170.24"/>
<polygon fill="red" stroke="red" points="52.5,-170.18 49,-160.18 45.5,-170.18 52.5,-170.18"/>
<text text-anchor="middle" x="78" y="-181.8" font-family="Times,serif" font-size="14.00">40.000000</text>
</g>
<!-- 1 -->
<g id="node2" class="node">
<title>1</title>
<ellipse fill="none" stroke="black" cx="49" cy="-34" rx="18" ry="18"/>
<text text-anchor="middle" x="49" y="-30.3" font-family="Times,serif" font-size="14.00">1</text>
</g>
<!-- 2&#45;&gt;1 -->
<g id="edge3" class="edge">
<title>2&#45;&gt;1</title>
<path fill="none" stroke="red" d="M49,-123.97C49,-107.38 49,-81.88 49,-62.43"/>
<polygon fill="red" stroke="red" points="52.5,-62.34 49,-52.34 45.5,-62.34 52.5,-62.34"/>
<text text-anchor="middle" x="78" y="-94.8" font-family="Times,serif" font-size="14.00">20.000000</text>
</g>
<!-- 2&#45;&gt;2 -->
<g id="edge2" class="edge">
<title>2&#45;&gt;2</title>
<path fill="none" stroke="red" d="M65.66,-149.38C75.62,-151.02 85,-148.56 85,-142 85,-137.8 81.15,-135.28 75.77,-134.44"/>
<polygon fill="red" stroke="red" points="75.6,-130.94 65.66,-134.62 75.72,-137.94 75.6,-130.94"/>
<text text-anchor="middle" x="114" y="-138.3" font-family="Times,serif" font-size="14.00">20.000000</text>
</g>
</g>
</svg>
