<?xml version="1.0" encoding="UTF-8" standalone="no"?>
<!DOCTYPE svg PUBLIC "-//W3C//DTD SVG 1.1//EN"
 "http://www.w3.org/Graphics/SVG/1.1/DTD/svg11.dtd">
<!-- Generated by graphviz version 2.43.0 (0)
 -->
<!-- Title: Evolutional_Graph_Neural_Network Pages: 1 -->
<svg width="362pt" height="294pt"
 viewBox="0.00 0.00 362.00 294.00" xmlns="http://www.w3.org/2000/svg" xmlns:xlink="http://www.w3.org/1999/xlink">
<g id="graph0" class="graph" transform="scale(1 1) rotate(0) translate(4 290)">
<title>Evolutional_Graph_Neural_Network</title>
<polygon fill="white" stroke="transparent" points="-4,4 -4,-290 358,-290 358,4 -4,4"/>
<g id="clust1" class="cluster">
<title>cluster_0</title>
<polygon fill="none" stroke="black" points="8,-203 8,-278 114,-278 114,-203 8,-203"/>
<text text-anchor="middle" x="61" y="-262.8" font-family="Times,serif" font-size="14.00">Input Nodes</text>
</g>
<g id="clust2" class="cluster">
<title>cluster_1</title>
<polygon fill="none" stroke="black" points="8,-8 8,-83 100,-83 100,-8 8,-8"/>
<text text-anchor="middle" x="54" y="-67.8" font-family="Times,serif" font-size="14.00">Output Nodes</text>
</g>
<!-- 0 -->
<g id="node1" class="node">
<title>0</title>
<ellipse fill="none" stroke="black" cx="34" cy="-229" rx="18" ry="18"/>
<text text-anchor="middle" x="34" y="-225.3" font-family="Times,serif" font-size="14.00">0</text>
</g>
<!-- 4 -->
<g id="node4" class="node">
<title>4</title>
<ellipse fill="none" stroke="black" cx="37" cy="-142" rx="18" ry="18"/>
<text text-anchor="middle" x="37" y="-138.3" font-family="Times,serif" font-size="14.00">4</text>
</g>
<!-- 0&#45;&gt;4 -->
<g id="edge1" class="edge">
<title>0&#45;&gt;4</title>
<path fill="none" stroke="red" d="M26.21,-212.76C22.12,-202.89 18.44,-189.74 21,-178 21.76,-174.5 22.91,-170.93 24.24,-167.47"/>
<polygon fill="red" stroke="red" points="27.51,-168.75 28.34,-158.18 21.1,-165.92 27.51,-168.75"/>
<text text-anchor="middle" x="50" y="-181.8" font-family="Times,serif" font-size="14.00">20.000000</text>
</g>
<!-- 1 -->
<g id="node2" class="node">
<title>1</title>
<ellipse fill="none" stroke="black" cx="88" cy="-229" rx="18" ry="18"/>
<text text-anchor="middle" x="88" y="-225.3" font-family="Times,serif" font-size="14.00">1</text>
</g>
<!-- 5 -->
<g id="node5" class="node">
<title>5</title>
<ellipse fill="none" stroke="black" cx="118" cy="-142" rx="18" ry="18"/>
<text text-anchor="middle" x="118" y="-138.3" font-family="Times,serif" font-size="14.00">5</text>
</g>
<!-- 1&#45;&gt;5 -->
<g id="edge2" class="edge">
<title>1&#45;&gt;5</title>
<path fill="none" stroke="red" d="M92.03,-211.13C94.53,-201.34 98.03,-188.84 102,-178 103.23,-174.64 104.65,-171.14 106.12,-167.73"/>
<polygon fill="red" stroke="red" points="109.38,-169.02 110.3,-158.46 103,-166.14 109.38,-169.02"/>
<text text-anchor="middle" x="131" y="-181.8" font-family="Times,serif" font-size="14.00">20.000000</text>
</g>
<!-- 2 -->
<g id="node3" class="node">
<title>2</title>
<ellipse fill="none" stroke="black" cx="54" cy="-34" rx="18" ry="18"/>
<text text-anchor="middle" x="54" y="-30.3" font-family="Times,serif" font-size="14.00">2</text>
</g>
<!-- 4&#45;&gt;2 -->
<g id="edge7" class="edge">
<title>4&#45;&gt;2</title>
<path fill="none" stroke="red" d="M36.25,-123.78C36.11,-114.1 36.37,-101.82 38,-91 39.48,-81.12 42.21,-70.52 44.99,-61.24"/>
<polygon fill="red" stroke="red" points="48.42,-62 48.1,-51.41 41.74,-59.89 48.42,-62"/>
<text text-anchor="middle" x="67" y="-94.8" font-family="Times,serif" font-size="14.00">40.000000</text>
</g>
<!-- 5&#45;&gt;2 -->
<g id="edge8" class="edge">
<title>5&#45;&gt;2</title>
<path fill="none" stroke="red" d="M111.96,-124.78C107.97,-114.76 102.32,-101.81 96,-91 88.91,-78.87 79.66,-66.27 71.64,-56.11"/>
<polygon fill="red" stroke="red" points="74.27,-53.79 65.27,-48.2 68.82,-58.18 74.27,-53.79"/>
<text text-anchor="middle" x="132" y="-94.8" font-family="Times,serif" font-size="14.00">40.000000</text>
</g>
<!-- 3 -->
<g id="node6" class="node">
<title>3</title>
<ellipse fill="none" stroke="black" cx="222" cy="-229" rx="18" ry="18"/>
<text text-anchor="middle" x="222" y="-225.3" font-family="Times,serif" font-size="14.00">3</text>
</g>
<!-- 3&#45;&gt;2 -->
<g id="edge6" class="edge">
<title>3&#45;&gt;2</title>
<path fill="none" stroke="blue" d="M239.92,-225.19C268.96,-219.77 321.55,-205.86 306,-178 258.09,-92.14 136.42,-54.02 81.57,-40.8"/>
<polygon fill="blue" stroke="blue" points="82.06,-37.32 71.53,-38.48 80.48,-44.14 82.06,-37.32"/>
<text text-anchor="middle" x="322.5" y="-138.3" font-family="Times,serif" font-size="14.00">&#45;20.000000</text>
</g>
<!-- 3&#45;&gt;4 -->
<g id="edge4" class="edge">
<title>3&#45;&gt;4</title>
<path fill="none" stroke="red" d="M208.32,-216.85C190.48,-202.33 161.37,-178.69 160,-178 131.7,-163.73 121.46,-168.76 91,-160 82.04,-157.42 72.3,-154.42 63.6,-151.66"/>
<polygon fill="red" stroke="red" points="64.55,-148.29 53.96,-148.58 62.42,-154.96 64.55,-148.29"/>
<text text-anchor="middle" x="206" y="-181.8" font-family="Times,serif" font-size="14.00">20.000000</text>
</g>
<!-- 3&#45;&gt;5 -->
<g id="edge5" class="edge">
<title>3&#45;&gt;5</title>
<path fill="none" stroke="red" d="M233.57,-214.96C241.71,-204.15 249.73,-188.85 241,-178 217.62,-148.93 194.59,-171.19 159,-160 153.89,-158.39 148.54,-156.41 143.45,-154.37"/>
<polygon fill="red" stroke="red" points="144.69,-151.09 134.11,-150.46 141.99,-157.55 144.69,-151.09"/>
<text text-anchor="middle" x="273" y="-181.8" font-family="Times,serif" font-size="14.00">20.000000</text>
</g>
<!-- 3&#45;&gt;3 -->
<g id="edge3" class="edge">
<title>3&#45;&gt;3</title>
<path fill="none" stroke="red" d="M238.66,-236.38C248.62,-238.02 258,-235.56 258,-229 258,-224.8 254.15,-222.28 248.77,-221.44"/>
<polygon fill="red" stroke="red" points="248.6,-217.94 238.66,-221.62 248.72,-224.94 248.6,-217.94"/>
<text text-anchor="middle" x="287" y="-225.3" font-family="Times,serif" font-size="14.00">20.000000</text>
</g>
</g>
</svg>
