<?xml version="1.0" encoding="UTF-8" standalone="no"?>
<!DOCTYPE svg PUBLIC "-//W3C//DTD SVG 1.1//EN"
 "http://www.w3.org/Graphics/SVG/1.1/DTD/svg11.dtd">
<!-- Generated by graphviz version 2.43.0 (0)
 -->
<!-- Title: Evolutional_Graph_Neural_Network Pages: 1 -->
<svg width="282pt" height="539pt"
 viewBox="0.00 0.00 282.00 539.00" xmlns="http://www.w3.org/2000/svg" xmlns:xlink="http://www.w3.org/1999/xlink">
<g id="graph0" class="graph" transform="scale(1 1) rotate(0) translate(4 535)">
<title>Evolutional_Graph_Neural_Network</title>
<polygon fill="white" stroke="transparent" points="-4,4 -4,-535 278,-535 278,4 -4,4"/>
<g id="clust1" class="cluster">
<title>cluster_0</title>
<polygon fill="none" stroke="black" points="72,-448 72,-523 155,-523 155,-448 72,-448"/>
<text text-anchor="middle" x="113.5" y="-507.8" font-family="Times,serif" font-size="14.00">Input Nodes</text>
</g>
<g id="clust2" class="cluster">
<title>cluster_1</title>
<polygon fill="none" stroke="black" points="8,-253 8,-328 100,-328 100,-253 8,-253"/>
<text text-anchor="middle" x="54" y="-312.8" font-family="Times,serif" font-size="14.00">Output Nodes</text>
</g>
<!-- 0 -->
<g id="node1" class="node">
<title>0</title>
<ellipse fill="none" stroke="black" cx="99" cy="-474" rx="18" ry="18"/>
<text text-anchor="middle" x="99" y="-470.3" font-family="Times,serif" font-size="14.00">0</text>
</g>
<!-- 2 -->
<g id="node3" class="node">
<title>2</title>
<ellipse fill="none" stroke="black" cx="99" cy="-387" rx="18" ry="18"/>
<text text-anchor="middle" x="99" y="-383.3" font-family="Times,serif" font-size="14.00">2</text>
</g>
<!-- 0&#45;&gt;2 -->
<g id="edge1" class="edge">
<title>0&#45;&gt;2</title>
<path fill="none" stroke="red" d="M99,-455.8C99,-444.16 99,-428.55 99,-415.24"/>
<polygon fill="red" stroke="red" points="102.5,-415.18 99,-405.18 95.5,-415.18 102.5,-415.18"/>
<text text-anchor="middle" x="128" y="-426.8" font-family="Times,serif" font-size="14.00">20.000000</text>
</g>
<!-- 1 -->
<g id="node2" class="node">
<title>1</title>
<ellipse fill="none" stroke="black" cx="59" cy="-279" rx="18" ry="18"/>
<text text-anchor="middle" x="59" y="-275.3" font-family="Times,serif" font-size="14.00">1</text>
</g>
<!-- 2&#45;&gt;1 -->
<g id="edge8" class="edge">
<title>2&#45;&gt;1</title>
<path fill="none" stroke="red" d="M83.91,-377.01C75.18,-370.9 64.97,-361.93 60,-351 53.84,-337.45 53.27,-320.89 54.38,-307.17"/>
<polygon fill="red" stroke="red" points="57.9,-307.23 55.56,-296.89 50.95,-306.43 57.9,-307.23"/>
<text text-anchor="middle" x="89" y="-339.8" font-family="Times,serif" font-size="14.00">20.000000</text>
</g>
<!-- 2&#45;&gt;2 -->
<g id="edge2" class="edge">
<title>2&#45;&gt;2</title>
<path fill="none" stroke="red" d="M115.66,-394.38C125.62,-396.02 135,-393.56 135,-387 135,-382.8 131.15,-380.28 125.77,-379.44"/>
<polygon fill="red" stroke="red" points="125.6,-375.94 115.66,-379.62 125.72,-382.94 125.6,-375.94"/>
<text text-anchor="middle" x="164" y="-383.3" font-family="Times,serif" font-size="14.00">20.000000</text>
</g>
<!-- 3 -->
<g id="node4" class="node">
<title>3</title>
<ellipse fill="none" stroke="black" cx="140" cy="-279" rx="18" ry="18"/>
<text text-anchor="middle" x="140" y="-275.3" font-family="Times,serif" font-size="14.00">3</text>
</g>
<!-- 2&#45;&gt;3 -->
<g id="edge3" class="edge">
<title>2&#45;&gt;3</title>
<path fill="none" stroke="red" d="M107.99,-370.99C111.41,-364.91 115.15,-357.75 118,-351 124.07,-336.6 129.32,-319.93 133.17,-306.36"/>
<polygon fill="red" stroke="red" points="136.56,-307.25 135.83,-296.68 129.81,-305.4 136.56,-307.25"/>
<text text-anchor="middle" x="153" y="-339.8" font-family="Times,serif" font-size="14.00">20.000000</text>
</g>
<!-- 4 -->
<g id="node5" class="node">
<title>4</title>
<ellipse fill="none" stroke="black" cx="140" cy="-192" rx="18" ry="18"/>
<text text-anchor="middle" x="140" y="-188.3" font-family="Times,serif" font-size="14.00">4</text>
</g>
<!-- 3&#45;&gt;4 -->
<g id="edge4" class="edge">
<title>3&#45;&gt;4</title>
<path fill="none" stroke="red" d="M140,-260.8C140,-249.16 140,-233.55 140,-220.24"/>
<polygon fill="red" stroke="red" points="143.5,-220.18 140,-210.18 136.5,-220.18 143.5,-220.18"/>
<text text-anchor="middle" x="169" y="-231.8" font-family="Times,serif" font-size="14.00">20.000000</text>
</g>
<!-- 5 -->
<g id="node6" class="node">
<title>5</title>
<ellipse fill="none" stroke="black" cx="140" cy="-105" rx="18" ry="18"/>
<text text-anchor="middle" x="140" y="-101.3" font-family="Times,serif" font-size="14.00">5</text>
</g>
<!-- 4&#45;&gt;5 -->
<g id="edge5" class="edge">
<title>4&#45;&gt;5</title>
<path fill="none" stroke="red" d="M140,-173.8C140,-162.16 140,-146.55 140,-133.24"/>
<polygon fill="red" stroke="red" points="143.5,-133.18 140,-123.18 136.5,-133.18 143.5,-133.18"/>
<text text-anchor="middle" x="169" y="-144.8" font-family="Times,serif" font-size="14.00">20.000000</text>
</g>
<!-- 6 -->
<g id="node7" class="node">
<title>6</title>
<ellipse fill="none" stroke="black" cx="140" cy="-18" rx="18" ry="18"/>
<text text-anchor="middle" x="140" y="-14.3" font-family="Times,serif" font-size="14.00">6</text>
</g>
<!-- 5&#45;&gt;6 -->
<g id="edge6" class="edge">
<title>5&#45;&gt;6</title>
<path fill="none" stroke="red" d="M140,-86.8C140,-75.16 140,-59.55 140,-46.24"/>
<polygon fill="red" stroke="red" points="143.5,-46.18 140,-36.18 136.5,-46.18 143.5,-46.18"/>
<text text-anchor="middle" x="169" y="-57.8" font-family="Times,serif" font-size="14.00">20.000000</text>
</g>
<!-- 6&#45;&gt;2 -->
<g id="edge7" class="edge">
<title>6&#45;&gt;2</title>
<path fill="none" stroke="blue" d="M157.14,-23.95C171.17,-29 190.1,-38.37 199,-54 240.57,-126.99 204.03,-159.15 199,-243 196.11,-291.26 215.41,-312.63 186,-351 171.89,-369.4 146.56,-378.16 126.86,-382.31"/>
<polygon fill="blue" stroke="blue" points="126.08,-378.89 116.87,-384.13 127.34,-385.78 126.08,-378.89"/>
<text text-anchor="middle" x="242.5" y="-188.3" font-family="Times,serif" font-size="14.00">&#45;40.000000</text>
</g>
</g>
</svg>
